<svg width="20" height="20" viewBox="0 0 20 20" fill="none" xmlns="http://www.w3.org/2000/svg">
<path fill-rule="evenodd" clip-rule="evenodd" d="M5.83398 6.66667C5.83398 4.36548 7.69946 2.5 10.0007 2.5C12.3018 2.5 14.1673 4.36548 14.1673 6.66667C14.1673 8.96785 12.3018 10.8333 10.0007 10.8333C7.69946 10.8333 5.83398 8.96785 5.83398 6.66667ZM10.0007 4.16667C8.61994 4.16667 7.50065 5.28595 7.50065 6.66667C7.50065 8.04738 8.61994 9.16667 10.0007 9.16667C11.3814 9.16667 12.5007 8.04738 12.5007 6.66667C12.5007 5.28595 11.3814 4.16667 10.0007 4.16667Z" fill="#3A3A3A"/>
<path d="M5.23936 4.96508C5.68031 4.83325 5.9309 4.36891 5.79906 3.92796C5.66723 3.48701 5.2029 3.23642 4.76195 3.36825C3.39225 3.77776 2.50065 5.16034 2.50065 6.66667C2.50065 8.173 3.39225 9.55558 4.76195 9.96508C5.2029 10.0969 5.66723 9.84632 5.79906 9.40537C5.9309 8.96442 5.68031 8.50009 5.23936 8.36825C4.69214 8.20465 4.16732 7.56592 4.16732 6.66667C4.16732 5.76741 4.69214 5.12868 5.23936 4.96508Z" fill="#3A3A3A"/>
<path d="M15.2394 3.36825C14.7984 3.23642 14.3341 3.48701 14.2022 3.92796C14.0704 4.36891 14.321 4.83325 14.7619 4.96508C15.3092 5.12868 15.834 5.76741 15.834 6.66667C15.834 7.56592 15.3092 8.20465 14.7619 8.36825C14.321 8.50009 14.0704 8.96442 14.2022 9.40537C14.3341 9.84632 14.7984 10.0969 15.2394 9.96508C16.6091 9.55558 17.5006 8.173 17.5006 6.66667C17.5006 5.16034 16.6091 3.77776 15.2394 3.36825Z" fill="#3A3A3A"/>
<path fill-rule="evenodd" clip-rule="evenodd" d="M10.0007 11.6667C8.33912 11.6667 6.74685 11.8785 5.53766 12.4155C4.30495 12.9628 3.33398 13.9285 3.33398 15.4167C3.33398 15.8056 3.40502 16.2482 3.66959 16.6702C3.93412 17.0922 4.34053 17.4116 4.86549 17.6491C5.87305 18.1049 7.48724 18.3333 10.0007 18.3333C12.5141 18.3333 14.1283 18.1049 15.1358 17.6491C15.6608 17.4116 16.0672 17.0922 16.3317 16.6702C16.5963 16.2482 16.6673 15.8056 16.6673 15.4167C16.6673 13.9285 15.6963 12.9628 14.4636 12.4155C13.2545 11.8785 11.6622 11.6667 10.0007 11.6667ZM5.00065 15.4167C5.00065 14.8215 5.33552 14.3288 6.21406 13.9387C7.11613 13.5381 8.44052 13.3333 10.0007 13.3333C11.5608 13.3333 12.8852 13.5381 13.7872 13.9387C14.6658 14.3288 15.0006 14.8215 15.0006 15.4167C15.0006 15.603 14.9675 15.7085 14.9196 15.785C14.8716 15.8615 14.7572 15.991 14.4488 16.1306C13.7897 16.4287 12.4872 16.6667 10.0007 16.6667C7.51406 16.6667 6.21159 16.4287 5.55248 16.1306C5.2441 15.991 5.12968 15.8615 5.08172 15.785C5.03378 15.7085 5.00065 15.603 5.00065 15.4167Z" fill="#3A3A3A"/>
<path d="M15.9208 11.2962C16.1254 10.884 16.6255 10.7156 17.0378 10.9202C18.2827 11.538 19.1673 12.6051 19.1673 14.1667C19.1673 14.6269 18.7942 15 18.334 15C17.8737 15 17.5006 14.6269 17.5006 14.1667C17.5006 13.3715 17.1048 12.8141 16.2969 12.4131C15.8846 12.2086 15.7163 11.7085 15.9208 11.2962Z" fill="#3A3A3A"/>
<path d="M3.70442 12.4131C4.11668 12.2086 4.28504 11.7085 4.08046 11.2962C3.87587 10.884 3.37582 10.7156 2.96355 10.9202C1.71864 11.538 0.833984 12.6051 0.833984 14.1667C0.833984 14.6269 1.20708 15 1.66732 15C2.12755 15 2.50065 14.6269 2.50065 14.1667C2.50065 13.3715 2.89651 12.8141 3.70442 12.4131Z" fill="#3A3A3A"/>
</svg>
