<?xml version="1.0" standalone="no"?>
<!DOCTYPE svg PUBLIC "-//W3C//DTD SVG 20010904//EN"
 "http://www.w3.org/TR/2001/REC-SVG-20010904/DTD/svg10.dtd">
<svg version="1.0" xmlns="http://www.w3.org/2000/svg"
 width="512.000000pt" height="512.000000pt" viewBox="0 0 512.000000 512.000000"
 preserveAspectRatio="xMidYMid meet">

<g transform="translate(0.000000,512.000000) scale(0.100000,-0.100000)"
fill="#000000" stroke="none">
<path d="M4120 5102 c-30 -10 -71 -27 -90 -36 -51 -26 -2935 -2910 -2954
-2955 -26 -61 -219 -1066 -212 -1105 4 -18 17 -49 29 -67 24 -37 97 -79 136
-79 43 0 1045 200 1082 216 51 22 2929 2903 2958 2961 49 98 62 206 37 299
-28 105 -58 142 -354 436 -258 255 -294 287 -351 312 -85 37 -201 45 -281 18z
m394 -591 c224 -225 258 -262 253 -282 -4 -13 -90 -107 -192 -209 l-185 -185
-278 278 -277 277 191 190 c117 117 198 190 210 190 12 0 116 -97 278 -259z
m-644 -646 l275 -275 -1098 -1098 -1097 -1097 -342 -67 c-188 -37 -343 -66
-345 -65 -1 2 27 156 64 342 l66 340 1096 1098 c603 603 1098 1097 1101 1097
3 0 129 -124 280 -275z"/>
<path d="M761 5075 c-334 -73 -601 -307 -708 -620 -55 -161 -53 -101 -53
-1910 0 -1794 -1 -1752 50 -1899 116 -338 415 -586 766 -636 57 -8 559 -10
1779 -8 1567 3 1705 5 1763 21 190 52 348 143 468 269 115 122 189 251 236
414 l23 79 0 1137 c0 1132 0 1137 -21 1164 -48 65 -118 91 -193 72 -53 -13
-106 -64 -120 -115 -7 -25 -11 -393 -11 -1103 0 -1169 2 -1127 -61 -1253 -83
-165 -237 -285 -414 -322 -105 -22 -3335 -22 -3439 0 -226 48 -413 236 -461
462 -22 103 -22 3334 0 3437 45 213 188 370 410 452 47 18 112 19 1160 24
1075 5 1111 6 1142 24 112 68 117 220 9 300 -27 21 -33 21 -1144 23 -922 1
-1128 -1 -1181 -12z"/>
</g>
</svg>
