<svg width="80" height="80" viewBox="0 0 80 80" fill="none" xmlns="http://www.w3.org/2000/svg">
<g clip-path="url(#clip0_219_3989)">
<path d="M2.65625 1.32812V2.65625H1.32812H0V3.98438V5.3125H1.32812H2.65625V6.64062V7.96875H3.98438H5.3125V6.64062V5.3125H6.64062H7.96875V3.98438V2.65625H6.64062H5.3125V1.32812V0H3.98438H2.65625V1.32812ZM5.3125 3.98438V5.3125H3.98438H2.65625V3.98438V2.65625H3.98438H5.3125V3.98438Z" fill="white"/>
<path d="M72.0312 5.65649C72.0312 12.1096 71.9531 12.7346 70.9375 14.7815C70.2187 16.2659 69.2187 17.4377 67.9687 18.2815C66.9844 18.9377 65.5312 19.6096 64.6719 19.7659L64.1094 19.8752L64.0312 18.1721C63.9375 16.2346 63.6562 15.3909 62.7969 14.5471C61.8594 13.594 61.1406 13.3752 58.6719 13.3127L56.4687 13.2502L56.0156 12.3596C55.0781 10.6096 52.9062 8.04711 51.0156 6.53149C48 4.09399 43.3906 2.23461 38.9375 1.64086C36.8906 1.37524 32.8594 1.32836 30.9375 1.56274C19.3437 2.98461 11.625 10.3909 10.7812 20.9377C10.4531 24.9846 11.0781 28.3909 12.7656 31.844C14.0312 34.4534 15.9531 36.8909 18.125 38.6409C18.625 39.0315 18.7656 39.219 18.5937 39.2815C18.4687 39.3284 15.7187 39.8909 12.5 40.5471C8.2031 41.4221 6.3906 41.8596 5.7031 42.1721C2.9531 43.469 1.56248 46.344 2.2031 49.4065C2.7656 52.0002 4.53123 53.5315 7.5781 54.0315C8.87498 54.2346 9.5156 54.2346 15.6094 53.8909C21.5 53.5471 22.2344 53.5315 22.3125 53.7502C22.9687 55.6721 24 57.844 25.8906 61.3284C28.4687 66.094 29.1875 67.2659 30.4687 68.8284C31.9219 70.5784 39.3594 77.8752 40.3437 78.5002C42.6875 79.9846 45.5 80.3596 48.1562 79.5315C48.7031 79.3596 50.0781 78.7034 51.2187 78.0471C52.3594 77.4065 53.375 76.8752 53.4687 76.8752C53.5625 76.8752 54.0937 77.0471 54.625 77.2659C55.1562 77.4846 56.1406 77.7346 56.7969 77.8284C58.7969 78.094 59.8281 77.8596 64.5 76.0002C66.7656 75.1096 68.6406 74.3752 68.6719 74.3752C68.7187 74.3752 68.875 74.6409 69.0469 74.9534C69.6562 76.1409 70.9531 77.0159 72.4531 77.2659C73.2812 77.3909 74.6875 77.0159 75.4844 76.4377C76.1875 75.9221 76.9531 74.8284 77.1719 73.9846C77.2812 73.6096 77.3437 71.4377 77.3437 68.4377C77.3437 62.9221 77.2812 62.6096 76.2344 61.8596C75.7187 61.5002 75.6094 61.4846 72.3437 61.4377L69 61.3909L65.3281 62.2815L61.6719 63.1565L56.875 58.344C52.7969 54.2502 51.25 52.5315 51.25 52.1096C51.25 52.0627 53.2187 52.0315 55.625 52.0315C58.1719 52.0315 60.3125 51.9534 60.7812 51.8596C61.9844 51.594 62.9531 50.8752 63.5 49.7971C63.9375 48.9221 63.9687 48.7659 64.0312 46.5471C64.0937 44.3284 64.1094 44.219 64.4375 44.1409C67.8594 43.3752 70.7187 42.594 71.3437 42.2346C73.6719 40.9377 74.9844 38.2502 74.5469 35.6877C74.125 33.2815 72.5469 31.4065 70.2812 30.6409C68.8906 30.1721 67.2812 30.2346 64.4219 30.8596C64.0625 30.9377 64.0625 30.9221 64.0625 29.4534C64.0625 28.0471 64.0781 27.969 64.4219 27.9065C64.6094 27.8752 65.2656 27.7502 65.8594 27.6409C69.2187 27.0471 72.125 25.5159 74.7344 22.9846C77.5312 20.2815 79.2969 16.7815 79.8281 12.9065C79.9219 12.219 80 9.15649 80 5.84399V0.000236511H78.6875H77.3594L77.2969 6.43774C77.2344 13.3752 77.2187 13.594 76.3281 15.9377C75.4062 18.3752 73.3281 21.0471 71.1562 22.594C69.375 23.8596 67.0937 24.7815 64.8437 25.1409L64.0625 25.2659V23.9221V22.5784L65.1094 22.3752C68.8906 21.6565 72.4531 18.6409 73.7969 15.0471C74.5937 12.9221 74.5781 13.0315 74.6406 6.35961L74.7031 0.000236511H73.375H72.0312V5.65649ZM40.0469 4.51586C41.8281 4.87524 44.5312 5.78149 45.8594 6.43774C51.3281 9.17211 54.875 13.969 55.7812 19.844C56 21.3284 55.9687 24.4221 55.7031 25.8596C54.9844 29.8284 53.6094 32.5002 50.875 35.2502C46.5625 39.5784 40.3437 41.6409 32.8594 41.2346C28.25 40.969 23.5937 39.4065 20.4531 37.0315C17.6875 34.9534 15.4062 31.8284 14.3594 28.6721C13.6406 26.5627 13.4062 25.0002 13.4062 22.6565C13.4062 18.7815 14.3594 15.5471 16.4531 12.4221C17.3125 11.1252 19.8437 8.65649 21.25 7.75024C23.6094 6.18774 26.4219 5.07836 29.375 4.53149C31.8125 4.07836 31.7031 4.09399 35.2344 4.14086C37.7656 4.18774 38.8594 4.26586 40.0469 4.51586ZM60.9062 16.4534L61.3281 16.8752L61.375 24.1409C61.3906 28.1409 61.3906 31.4065 61.375 31.4065C61.3437 31.4065 60.2344 31.6096 58.9062 31.8596C57.5781 32.1252 56.4687 32.2971 56.4531 32.2815C56.4219 32.2502 56.6094 31.7815 56.8594 31.2346C58 28.7034 58.5937 25.844 58.5937 22.7815C58.5937 20.2034 58.3437 18.3284 57.7031 16.1877C57.625 15.9221 57.7031 15.9065 59.0469 15.969C60.3437 16.0315 60.5156 16.0784 60.9062 16.4534ZM69.4062 33.1565C70.2344 33.4065 71.3125 34.3909 71.6406 35.1877C72.0625 36.2659 72 37.5002 71.4375 38.469C70.6406 39.9065 70.4062 39.9846 62.7031 41.8127C58.9375 42.7034 55.8125 43.4221 55.7656 43.3909C55.7187 43.3752 56.5625 41.3596 57.6562 38.9065L59.6406 34.4534L63.5312 33.719C67.7187 32.9377 68.4531 32.8752 69.4062 33.1565ZM56.3594 35.1877C55.9375 36.2346 52.5781 43.7502 52.4219 44.0002C52.2969 44.1877 51.9531 44.3909 51.6406 44.4377C51.3281 44.5002 50.9687 44.594 50.8437 44.6409C50.6562 44.7034 50.625 44.2815 50.625 41.9221V39.1409L51.8125 38.1252C52.4687 37.5627 53.0781 37.0002 53.1875 36.8596C53.9375 35.7971 54.4375 35.4065 55.2969 35.219C56.4531 34.969 56.4531 34.969 56.3594 35.1877ZM48.4062 52.2034C49.0469 54.1409 49.6875 54.8909 56.5312 61.7659L63.0469 68.2815L63.9687 67.344L64.9062 66.4221L64.4531 65.9377C64.2031 65.6877 64.0312 65.4377 64.0781 65.4065C64.1094 65.3752 64.875 65.1565 65.7812 64.9221C66.6875 64.7034 67.5469 64.4846 67.7031 64.4377C67.9531 64.3596 67.9687 64.5784 67.9375 68.0627L67.8906 71.7815L64.0625 73.3284C59.875 75.0002 58.5469 75.3752 57.2969 75.219C56.3437 75.094 54.9531 74.6096 54.2969 74.1721C54.0469 74.0002 51.5312 71.5627 48.7187 68.7659L43.5937 63.6721L42.6562 64.6096L41.7187 65.5471L46.4375 70.2659C49.0312 72.8596 51.125 75.0159 51.0937 75.0471C50.7656 75.3127 48.0312 76.7659 47.5156 76.9534C46.5 77.3127 45 77.4065 44.0469 77.1877C42.1406 76.7502 41.75 76.4377 37.2187 71.9534C34.8594 69.6409 32.5156 67.1721 32 66.4846C31.5 65.7971 30.4531 64.1096 29.6875 62.7346C24.375 53.0784 24.0625 52.1565 24.0625 45.594V42.0471L25.2031 42.4377C28.3437 43.5159 30.9844 43.9221 34.7656 43.9377C39.3437 43.9534 43.3594 43.0784 46.875 41.3284L47.8906 40.8127L47.9844 46.0002C48.0625 50.7659 48.0937 51.2502 48.4062 52.2034ZM21.4062 45.1877C21.4062 47.1877 21.4531 49.2971 21.5156 49.8752C21.6094 50.8909 21.5937 50.9377 21.2656 50.9377C20.9844 50.9377 20.6094 50.2659 18.8125 46.7034C17.6562 44.3752 16.7187 42.4377 16.75 42.4221C16.8437 42.3284 20.5469 41.594 20.9844 41.5784L21.4062 41.5627V45.1877ZM15.9844 46.969C17.0937 49.1721 17.9687 51.0002 17.9375 51.0159C17.9062 51.0471 15.8594 51.1877 13.3594 51.3284C8.29685 51.6252 7.24998 51.5627 6.12498 50.8284C5.15623 50.1877 4.7656 49.3752 4.7656 47.9534C4.7656 46.9065 4.8281 46.6877 5.23435 46.0002C6.0156 44.7502 6.65623 44.469 10.4062 43.6877C12.2031 43.2971 13.75 42.9846 13.8281 42.9846C13.9219 42.969 14.8906 44.7659 15.9844 46.969ZM61.4062 46.3752C61.4062 47.1252 61.3281 48.0002 61.2344 48.3284C60.9687 49.3284 60.7187 49.3752 55.3125 49.3752H50.625V48.4377C50.625 47.7346 50.6875 47.469 50.8594 47.4065C51.4062 47.1877 61.1875 44.9065 61.2969 44.9534C61.3594 44.9846 61.4062 45.6252 61.4062 46.3752ZM74.6562 68.7815C74.6094 73.8596 74.5937 73.969 73.7812 74.4065C73.5781 74.5159 73.125 74.6096 72.7969 74.6096C71.9844 74.6096 71.5 74.094 71 72.7502C70.6406 71.7502 70.625 71.5471 70.625 67.8909V64.0627H72.6719H74.7031L74.6562 68.7815Z" fill="white"/>
<path d="M28.3592 6.82789C27.0155 7.01539 25.203 7.60914 23.6717 8.35914C17.2655 11.4841 13.703 18.406 14.9217 25.3748C15.9842 31.4841 20.2967 36.2498 26.4061 38.0779C28.2342 38.6248 31.6717 38.7654 33.6092 38.3591C40.7186 36.9216 45.8749 31.2654 46.5467 24.1716C46.828 21.1873 46.328 18.4216 44.9999 15.7029C42.7499 11.0623 38.6249 7.92164 33.5467 6.95289C32.4061 6.73414 29.5311 6.67164 28.3592 6.82789ZM33.1561 9.59352C37.3124 10.3904 40.953 13.2341 42.7186 17.0623C43.1561 17.9998 43.7499 19.8123 43.7499 20.2185C43.7499 20.2654 43.3436 20.1248 42.8592 19.906C38.1405 17.7654 35.2186 16.7654 32.1092 16.2498C30.5311 15.9841 27.7967 16.031 26.328 16.3279C23.7811 16.8591 21.1092 17.8904 18.7499 19.281C18.2186 19.5935 17.7499 19.8279 17.7186 19.7966C17.5936 19.6716 18.328 17.531 18.8436 16.5623C20.7499 12.9373 24.2342 10.3435 28.2967 9.54664C29.3905 9.32789 31.9061 9.35914 33.1561 9.59352ZM32.9217 19.1248C35.4999 19.6873 39.078 21.0154 42.203 22.5935C44.1717 23.5779 44.1405 23.4841 43.5936 25.7498C42.3905 30.7966 38.328 34.6873 33.2186 35.7185C31.578 36.0623 28.6717 35.9373 27.0624 35.4841C21.8905 33.9841 18.1249 29.5466 17.4374 24.1248L17.3436 23.3279L18.4217 22.6091C21.6874 20.4373 25.2499 19.031 28.1249 18.781C29.5155 18.656 31.3749 18.781 32.9217 19.1248Z" fill="white"/>
<path d="M49.375 23.3594V26.7188H50.7031H52.0312V23.3594V20H50.7031H49.375V23.3594Z" fill="white"/>
<path d="M30.6089 46.9375C29.437 47.3594 28.5777 48.3281 28.187 49.6562C27.9839 50.3125 27.9527 51.0781 27.9995 53.0937C28.0464 55.625 28.062 55.7187 28.4995 56.5312C28.7495 56.9687 29.187 57.5312 29.4839 57.75C30.5777 58.5781 30.7027 58.5938 36.0464 58.5938C40.5152 58.5938 41.0777 58.5625 41.6402 58.2969C42.437 57.9375 43.4839 56.7969 43.7652 56C44.062 55.1562 44.062 50.1719 43.7652 49.3125C43.4683 48.4687 42.562 47.5156 41.6402 47.0937C40.8745 46.7344 40.7652 46.7187 36.0152 46.7344C32.437 46.7344 31.0152 46.7812 30.6089 46.9375ZM40.8902 49.75L41.3277 50.125V52.625C41.3277 55.0625 41.312 55.1406 40.9527 55.5312L40.5777 55.9375H36.0152H31.4527L31.0777 55.5312C30.7183 55.1406 30.7027 55.0625 30.7027 52.6562C30.7027 50.25 30.7183 50.1719 31.0777 49.7812L31.4527 49.375H35.9527H40.4527L40.8902 49.75Z" fill="white"/>
<path d="M0 26.6406V27.9688H1.32812H2.65625V26.6406V25.3125H1.32812H0V26.6406Z" fill="white"/>
<path d="M74.6875 48.0469V49.375H73.3594H72.0312V50.7031V52.0312H73.3594H74.6875V53.3594V54.6875H76.0156H77.3438V53.3594V52.0312H78.6719H80V50.7031V49.375H78.6719H77.3438V48.0469V46.7188H76.0156H74.6875V48.0469ZM77.3438 50.7031V52.0312H76.0156H74.6875V50.7031V49.375H76.0156H77.3438V50.7031Z" fill="white"/>
<path d="M0 57.2656V58.5938H1.32812H2.65625V57.2656V55.9375H1.32812H0V57.2656Z" fill="white"/>
<path d="M15.9375 63.9844V65.3125H14.6094H13.2812V66.6406V67.9688H14.6094H15.9375V69.2969V70.625H17.2656H18.5938V69.2969V67.9688H20H21.4219L21.375 66.6719L21.3281 65.3906H20H18.6719L18.625 66.6719L18.5781 67.9688H17.2656H15.9375V66.6406V65.3125H17.2656H18.5938V63.9844V62.6562H17.2656H15.9375V63.9844Z" fill="white"/>
<path d="M5.3125 74.6094V75.9375H6.64062H7.96875V74.6094V73.2812H6.64062H5.3125V74.6094Z" fill="white"/>
<path d="M25.3125 78.6719V80H26.6406H27.9688V78.6719V77.3438H26.6406H25.3125V78.6719Z" fill="white"/>
</g>
<defs>
<clipPath id="clip0_219_3989">
<rect width="80" height="80" fill="white"/>
</clipPath>
</defs>
</svg>
