<svg width="8" height="8" viewBox="0 0 8 8" fill="none" xmlns="http://www.w3.org/2000/svg">
<path d="M4.26667 0.145394C4.41709 0.281801 4.45812 0.425029 4.5812 1.15481C4.75897 2.24607 4.82051 2.40976 5.11453 2.73714C5.47009 3.1259 5.73675 3.23503 6.76923 3.40554C7.75385 3.56923 8 3.68517 8 3.99209C8 4.33993 7.81538 4.43541 6.80342 4.61274C5.77778 4.79689 5.48376 4.90602 5.14188 5.25386C4.8547 5.54714 4.75214 5.85405 4.5812 6.88393C4.49915 7.34772 4.40342 7.7774 4.35556 7.82514C4.12991 8.10478 3.69231 8.03658 3.56239 7.7092C3.5282 7.61371 3.44615 7.21131 3.38462 6.81573C3.2547 5.94954 3.12479 5.58124 2.85128 5.2675C2.54359 4.91966 2.22906 4.79007 1.29231 4.6332C0.82735 4.55818 0.389743 4.47634 0.328205 4.45587C0.123077 4.39449 -3.57628e-07 4.22398 -3.57628e-07 4.01255C-3.57628e-07 3.67835 0.177777 3.57605 0.99829 3.44646C2.05812 3.27595 2.2906 3.20775 2.59829 2.98949C3.04273 2.66894 3.2 2.31428 3.38462 1.20937C3.52137 0.418209 3.57607 0.213597 3.69914 0.111291C3.89744 -0.0455775 4.06154 -0.0387567 4.26667 0.145394ZM3.86325 1.64588C3.71966 2.45068 3.50085 2.90765 3.07009 3.29641C2.70085 3.63061 2.35214 3.76702 1.58632 3.88978C1.31282 3.93753 1.11453 3.99209 1.14188 4.01937C1.16923 4.04665 1.42906 4.10804 1.7094 4.14896C2.36581 4.25126 2.72137 4.41495 3.13846 4.80371C3.54188 5.17884 3.71282 5.55396 3.87009 6.41332L3.99316 7.05444L4.11624 6.34512C4.30769 5.25386 4.65641 4.74233 5.4359 4.38767C5.62051 4.29901 6.01026 4.1967 6.2906 4.14896C6.57094 4.10804 6.82393 4.04665 6.85812 4.01937C6.88547 3.99891 6.65299 3.93753 6.3453 3.88978C5.64786 3.78748 5.15556 3.56923 4.80684 3.22139C4.43077 2.84626 4.23932 2.41658 4.11624 1.65952C4.0547 1.30486 4 1.0184 3.99316 1.0184C3.98632 1.0184 3.93162 1.30486 3.86325 1.64588Z" fill="white"/>
</svg>
