<svg width="30" height="31" viewBox="0 0 30 31" fill="none" xmlns="http://www.w3.org/2000/svg">
<path d="M9.31819 0.0648479C9.25184 0.101036 9.08296 0.239758 8.94424 0.372448L8.69696 0.613703L8.48586 0.481012C8.03954 0.2096 7.35196 0.082943 6.76692 0.173412C6.00094 0.294041 5.25305 0.794643 4.86101 1.46412C4.45088 2.16376 4.40866 3.21322 4.75245 3.91286L4.94545 4.29283L4.67404 4.58234C4.34834 4.93216 4.32422 5.12516 4.5715 5.43879C4.96957 5.9394 11.2663 12.2361 11.3749 12.2422C11.6403 12.2603 11.7428 12.212 11.972 11.9889C12.1107 11.8622 12.2434 11.7536 12.2796 11.7536C12.3097 11.7536 12.4726 11.8863 12.6354 12.0552L12.9249 12.3507L12.7681 12.5799C12.3942 13.1227 12.3399 13.3459 12.3158 14.317C12.2977 15.1553 12.3037 15.2398 12.4123 15.3724C12.5148 15.4931 12.6053 15.5293 12.9189 15.5534L13.2989 15.5835L13.317 16.2591L13.3351 16.9285L10.042 23.6354C8.23254 27.3266 6.75486 30.3664 6.75486 30.3966C6.75486 30.4509 7.59322 30.8972 7.62941 30.861C7.64147 30.8489 8.2446 29.6185 8.9744 28.1288C9.95751 26.1264 10.3315 25.4086 10.4159 25.4026C10.4762 25.3966 11.3809 25.68 12.4243 26.0359L14.3242 26.6813L14.3423 28.6535L14.3544 30.6318H14.8369H15.3194L15.3315 28.6535L15.3496 26.6813L17.2494 26.0359C18.2929 25.6861 19.1976 25.3905 19.2518 25.3905C19.3242 25.3845 19.5896 25.867 20.247 27.206C20.7356 28.2132 21.3447 29.4496 21.592 29.9563L22.0444 30.873L22.4847 30.668C22.7199 30.5474 22.9189 30.4328 22.9189 30.3966C22.9189 30.3664 21.4412 27.3266 19.6318 23.6414L16.3447 16.9406V16.3978C16.3447 16.0962 16.3628 15.855 16.393 15.855C16.4171 15.855 16.6825 16.1022 16.978 16.4038C17.6354 17.0673 17.7802 17.1517 18.0637 17.0612C18.1722 17.025 18.2989 16.9527 18.3411 16.9044C18.4014 16.826 18.5522 16.9527 19.3302 17.7247C20.4521 18.8344 20.434 18.8284 21.0552 18.2253L21.4714 17.8272L21.8875 18.2253C22.4304 18.756 22.551 18.7621 23.0275 18.2977L23.3713 17.972L23.0395 17.6342C22.7923 17.3809 22.6777 17.3025 22.5812 17.3266C22.4967 17.3507 22.4123 17.3145 22.3278 17.2241L22.1951 17.0854L22.5872 16.6993C22.937 16.3556 22.9792 16.2832 22.9792 16.0781C22.9792 15.855 22.931 15.7886 22.0986 14.9503L21.2181 14.0516L21.3447 13.8767C21.4111 13.7741 21.4714 13.6053 21.4714 13.5027C21.4714 13.3278 21.3387 13.171 20.3134 12.1396L19.1553 10.9696L19.3001 10.8188L19.4448 10.662L20.0359 11.253L20.627 11.8381L20.9587 11.5124C21.1397 11.3314 21.2904 11.1565 21.2904 11.1203C21.2904 11.0419 18.8658 8.61732 18.7874 8.61732C18.7512 8.61732 18.5763 8.7681 18.3954 8.94905L18.0697 9.28077L18.3954 9.6125L18.7211 9.94422L18.5763 10.095L18.4316 10.2518L17.2675 9.08777L16.1095 7.92974L16.3749 7.64024C16.6523 7.35073 16.7006 7.19995 16.5739 6.97076C16.4834 6.80188 9.92132 0.167381 9.75245 0.070879C9.5896 -0.0195904 9.475 -0.0256233 9.31819 0.0648479ZM7.73797 1.27112C7.82844 1.30731 7.90082 1.35556 7.90082 1.37968C7.90082 1.40984 7.40624 1.90441 6.80311 2.48946L5.71143 3.55701L5.62699 3.35797C5.52446 3.11672 5.5124 2.50152 5.6089 2.25423C5.92856 1.40381 6.91167 0.945427 7.73797 1.27112ZM12.4786 4.22046L15.3737 7.15773L13.4376 9.0938L11.4955 11.0359L8.59442 8.09862C7.00214 6.48222 5.68731 5.13722 5.67524 5.10104C5.65112 5.03469 9.46897 1.25906 9.54135 1.27715C9.56547 1.28318 10.8863 2.61008 12.4786 4.22046ZM17.8043 11.0721C19.1252 12.393 20.2048 13.4967 20.2048 13.5329C20.2048 13.5691 19.6921 14.1119 19.0588 14.7392L17.9129 15.8851L17.6354 15.6077L17.358 15.3302L17.364 14.4919C17.3761 13.5751 17.3037 13.2012 17.0263 12.7548C16.7006 12.2241 16.1758 11.8079 15.5968 11.6149C15.1988 11.4822 14.475 11.4882 14.083 11.627L13.7814 11.7295L13.4014 11.3676L13.0275 10.9997L14.1855 9.84169C14.8248 9.20236 15.3616 8.67763 15.3797 8.67763C15.3978 8.67763 16.4895 9.75725 17.8043 11.0721ZM15.4702 12.6523C15.7838 12.7971 16.2 13.2494 16.2784 13.5389C16.3146 13.6716 16.3447 13.943 16.3447 14.1481V14.5281H14.8369H13.329V14.1481C13.329 13.943 13.3592 13.6776 13.3894 13.557C13.4738 13.2675 13.896 12.791 14.2036 12.6523C14.5293 12.5015 15.1445 12.5015 15.4702 12.6523ZM21.1095 16.7295L20.4461 17.393L19.8007 16.7416L19.1493 16.0962L19.8128 15.4328L20.4762 14.7693L21.1216 15.4147L21.773 16.0661L21.1095 16.7295ZM15.3194 16.0661V16.5787H14.8369H14.3544V16.0661V15.5534H14.8369H15.3194V16.0661ZM14.3423 21.6028C14.3483 23.7802 14.3363 25.5654 14.3122 25.5654C14.282 25.5654 13.4859 25.3061 12.5329 24.9864L10.8079 24.4135L11.7428 22.5015C12.2555 21.4521 13.0094 19.9141 13.4075 19.0938C13.9442 17.9961 14.1614 17.604 14.2277 17.6161C14.3122 17.6342 14.3242 18.0564 14.3423 21.6028ZM16.405 19.3652C16.8755 20.3363 17.6234 21.8682 18.0637 22.7729L18.8658 24.4135L17.1409 24.9864C16.1879 25.3061 15.3918 25.5654 15.3616 25.5654C15.3073 25.5654 15.3013 17.7006 15.3616 17.6463C15.3797 17.6221 15.434 17.604 15.4702 17.604C15.5064 17.604 15.9286 18.4002 16.405 19.3652Z" fill="white"/>
<path d="M14.3545 13.5327V14.0454H14.837H15.3195V13.5327V13.0201H14.837H14.3545V13.5327Z" fill="white"/>
<path d="M19.674 0.0767159C18.902 0.330033 18.4315 0.999515 18.4376 1.83787C18.4436 2.79083 19.2337 3.55078 20.2168 3.55078C20.5485 3.55078 20.6812 3.52062 20.9949 3.35175C22.3157 2.6702 22.2856 0.812542 20.9466 0.167186C20.6088 0.00433969 20.0238 -0.0378799 19.674 0.0767159ZM20.5968 1.13824C20.832 1.28299 21.0069 1.669 20.9526 1.91025C20.7717 2.63401 19.8368 2.74861 19.5232 2.08516C19.3965 1.81978 19.3965 1.69915 19.5292 1.45187C19.7464 1.04173 20.2168 0.903013 20.5968 1.13824Z" fill="white"/>
<path d="M26.5986 0.987822V1.50049H27.1113H27.63L27.6119 0.999885L27.5938 0.505313L27.0992 0.487219L26.5986 0.469125V0.987822Z" fill="white"/>
<path d="M0 1.5303V2.04297H0.512666H1.02533V1.5303V1.01764H0.512666H0V1.5303Z" fill="white"/>
<path d="M28.1361 7.65254L27.7803 8.01442L27.9733 8.21346L28.1663 8.41249L27.9853 8.5874C27.8888 8.6839 27.8044 8.79247 27.8044 8.82865C27.8044 8.86484 27.9552 9.03975 28.1361 9.22069L28.4678 9.54639L28.6789 9.34132L28.89 9.13625L29.1011 9.34132L29.3122 9.54639L29.644 9.22069C29.8249 9.03975 29.9757 8.86484 29.9757 8.82865C29.9757 8.79247 29.8913 8.6839 29.7947 8.5874L29.6138 8.41249L29.8068 8.21346L29.9998 8.01442L29.644 7.65254L29.2881 7.29066L29.0891 7.48366L28.89 7.67666L28.691 7.48366L28.492 7.29066L28.1361 7.65254Z" fill="white"/>
<path d="M3.61882 9.25075C2.7503 9.52216 2.3281 10.5716 2.76236 11.3979C3.33534 12.4956 4.86731 12.4956 5.44029 11.3979C5.88058 10.5596 5.45235 9.51612 4.55971 9.25075C4.19783 9.14218 3.97467 9.14218 3.61882 9.25075ZM4.4813 10.3726C4.5959 10.5113 4.61399 10.7948 4.52352 10.9637C4.42702 11.1506 4.13148 11.2411 3.92038 11.1506C3.5766 11.0119 3.50422 10.5957 3.77563 10.3243C3.90229 10.1977 3.96863 10.1796 4.14958 10.2097C4.2702 10.2278 4.42099 10.3002 4.4813 10.3726Z" fill="white"/>
<path d="M7.66016 15.3421V15.8608L8.16076 15.8427L8.65533 15.8247L8.67343 15.324L8.69152 14.8295H8.17282H7.66016V15.3421Z" fill="white"/>
<path d="M26.5986 16.3675V16.8862L27.0992 16.8681L27.5938 16.85L27.6119 16.3494L27.63 15.8549H27.1113H26.5986V16.3675Z" fill="white"/>
<path d="M1.02524 17.061V17.3023H0.753833H0.482422V17.8149V18.3276H0.717645C0.9589 18.3276 0.9589 18.3276 0.976994 18.5809L0.995088 18.8403L1.48966 18.8584L1.98423 18.8765L2.00233 18.6171C2.02042 18.3578 2.02042 18.3578 2.27977 18.3397L2.53309 18.3216V17.8089V17.3023H2.26167H1.99026V17.061V16.8198H1.50775H1.02524V17.061Z" fill="white"/>
</svg>
