<svg width="20" height="26" viewBox="0 0 20 26" fill="none" xmlns="http://www.w3.org/2000/svg">
<path d="M0.376953 0.533204L0.25 0.655079V13V25.3449L0.376953 25.4668L0.498828 25.5938H10H19.5012L19.623 25.4668L19.75 25.3449V13V0.655079L19.623 0.533204L19.5012 0.406251H10H0.498828L0.376953 0.533204ZM6.75 1.625V2.03125H4.43945H2.12383L2.00195 2.1582L1.875 2.28008V13V23.7199L2.00195 23.8418L2.12383 23.9688H10H17.8762L17.998 23.8418L18.125 23.7199V13V2.28008L17.998 2.1582L17.8762 2.03125H15.5605H13.25V1.625V1.21875H16.0937H18.9375V13V24.7813H10H1.0625V13V1.21875H3.90625H6.75V1.625ZM12.4375 2.4375V3.65625H10H7.5625V2.4375V1.21875H10H12.4375V2.4375ZM6.75 3.5293C6.75 4.19453 6.75508 4.225 6.87695 4.3418L6.99883 4.46875H10H13.0012L13.123 4.3418C13.2449 4.225 13.25 4.19453 13.25 3.5293V2.84375H15.2812H17.3125V13V23.1563H10H2.6875V13V2.84375H4.71875H6.75V3.5293Z" fill="white"/>
<path d="M3.90715 5.7536C3.81066 5.78406 3.61262 5.92625 3.47551 6.06844C3.11496 6.42391 3.0134 6.80477 3.15558 7.28211C3.23683 7.56141 3.65832 7.98289 3.93762 8.06414C4.41496 8.20633 4.79582 8.10477 5.15129 7.74422C5.64894 7.25164 5.66418 6.61688 5.19191 6.09383C4.86183 5.72821 4.38957 5.60125 3.90715 5.7536ZM4.59269 6.62703C4.8466 6.87586 4.66887 7.31258 4.3134 7.31258C4.10519 7.31258 3.90715 7.11453 3.90715 6.90633C3.90715 6.69813 4.10519 6.50008 4.3134 6.50008C4.40988 6.50008 4.51652 6.54578 4.59269 6.62703Z" fill="white"/>
<path d="M6.06445 5.81445C5.9832 5.89063 5.9375 5.99727 5.9375 6.09375C5.9375 6.19023 5.9832 6.29688 6.06445 6.37305L6.18633 6.5H11.4219H16.6574L16.7793 6.37305C16.9469 6.21055 16.9469 5.97695 16.7793 5.81445L16.6574 5.6875H11.4219H6.18633L6.06445 5.81445Z" fill="white"/>
<path d="M6.06445 7.0332C5.9832 7.10938 5.9375 7.21602 5.9375 7.3125C5.9375 7.40898 5.9832 7.51563 6.06445 7.5918L6.18633 7.71875H9.79687H13.4074L13.5293 7.5918C13.6105 7.51563 13.6562 7.40898 13.6562 7.3125C13.6562 7.21602 13.6105 7.10938 13.5293 7.0332L13.4074 6.90625H9.79687H6.18633L6.06445 7.0332Z" fill="white"/>
<path d="M3.90715 9.0036C3.81066 9.03406 3.61262 9.17625 3.47551 9.31844C3.11496 9.67391 3.0134 10.0548 3.15558 10.5321C3.23683 10.8114 3.65832 11.2329 3.93762 11.3141C4.41496 11.4563 4.79582 11.3548 5.15129 10.9942C5.64894 10.5016 5.66418 9.86688 5.19191 9.34383C4.86183 8.97821 4.38957 8.85125 3.90715 9.0036ZM4.59269 9.87703C4.8466 10.1259 4.66887 10.5626 4.3134 10.5626C4.10519 10.5626 3.90715 10.3645 3.90715 10.1563C3.90715 9.94813 4.10519 9.75008 4.3134 9.75008C4.40988 9.75008 4.51652 9.79578 4.59269 9.87703Z" fill="white"/>
<path d="M6.06445 9.06445C5.9832 9.14063 5.9375 9.24727 5.9375 9.34375C5.9375 9.44023 5.9832 9.54688 6.06445 9.62305L6.18633 9.75H11.4219H16.6574L16.7793 9.62305C16.9469 9.46055 16.9469 9.22695 16.7793 9.06445L16.6574 8.9375H11.4219H6.18633L6.06445 9.06445Z" fill="white"/>
<path d="M6.06445 10.2832C5.9832 10.3594 5.9375 10.466 5.9375 10.5625C5.9375 10.659 5.9832 10.7656 6.06445 10.8418L6.18633 10.9688H9.79687H13.4074L13.5293 10.8418C13.6105 10.7656 13.6562 10.659 13.6562 10.5625C13.6562 10.466 13.6105 10.3594 13.5293 10.2832L13.4074 10.1563H9.79687H6.18633L6.06445 10.2832Z" fill="white"/>
<path d="M3.90715 12.2537C3.65832 12.335 3.23176 12.7717 3.15558 13.0307C3.0134 13.508 3.11496 13.8889 3.47551 14.2443C3.9884 14.7623 4.6384 14.7623 5.15129 14.2443C5.64894 13.7518 5.66418 13.117 5.19191 12.5939C4.86183 12.2283 4.38957 12.1014 3.90715 12.2537ZM4.59269 13.1271C4.8466 13.376 4.66887 13.8127 4.3134 13.8127C4.21691 13.8127 4.11027 13.767 4.0341 13.6857C3.95285 13.6096 3.90715 13.5029 3.90715 13.4064C3.90715 13.31 3.95285 13.2033 4.0341 13.1271C4.11027 13.0459 4.21691 13.0002 4.3134 13.0002C4.40988 13.0002 4.51652 13.0459 4.59269 13.1271Z" fill="white"/>
<path d="M6.06445 12.3145C5.9832 12.3906 5.9375 12.4973 5.9375 12.5938C5.9375 12.6902 5.9832 12.7969 6.06445 12.873L6.18633 13H11.4219H16.6574L16.7793 12.873C16.9469 12.7105 16.9469 12.477 16.7793 12.3145L16.6574 12.1875H11.4219H6.18633L6.06445 12.3145Z" fill="white"/>
<path d="M6.06445 13.5332C5.9832 13.6094 5.9375 13.716 5.9375 13.8125C5.9375 13.909 5.9832 14.0156 6.06445 14.0918L6.18633 14.2188H9.79687H13.4074L13.5293 14.0918C13.6105 14.0156 13.6562 13.909 13.6562 13.8125C13.6562 13.716 13.6105 13.6094 13.5293 13.5332L13.4074 13.4063H9.79687H6.18633L6.06445 13.5332Z" fill="white"/>
<path d="M3.90715 15.5037C3.65832 15.585 3.23176 16.0217 3.15558 16.2807C3.0134 16.758 3.11496 17.1389 3.47551 17.4943C3.9884 18.0123 4.6384 18.0123 5.15129 17.4943C5.64894 17.0018 5.66418 16.367 5.19191 15.8439C4.86183 15.4783 4.38957 15.3514 3.90715 15.5037ZM4.59269 16.3771C4.8466 16.626 4.66887 17.0627 4.3134 17.0627C4.21691 17.0627 4.11027 17.017 4.0341 16.9357C3.95285 16.8596 3.90715 16.7529 3.90715 16.6564C3.90715 16.56 3.95285 16.4533 4.0341 16.3771C4.11027 16.2959 4.21691 16.2502 4.3134 16.2502C4.40988 16.2502 4.51652 16.2959 4.59269 16.3771Z" fill="white"/>
<path d="M6.06445 15.5645C5.9832 15.6406 5.9375 15.7473 5.9375 15.8438C5.9375 15.9402 5.9832 16.0469 6.06445 16.123L6.18633 16.25H11.4219H16.6574L16.7793 16.123C16.9469 15.9605 16.9469 15.727 16.7793 15.5645L16.6574 15.4375H11.4219H6.18633L6.06445 15.5645Z" fill="white"/>
<path d="M6.06445 16.7832C5.9832 16.8594 5.9375 16.966 5.9375 17.0625C5.9375 17.159 5.9832 17.2656 6.06445 17.3418L6.18633 17.4688H9.79687H13.4074L13.5293 17.3418C13.6105 17.2656 13.6562 17.159 13.6562 17.0625C13.6562 16.966 13.6105 16.8594 13.5293 16.7832L13.4074 16.6563H9.79687H6.18633L6.06445 16.7832Z" fill="white"/>
<path d="M3.90715 18.7537C3.65832 18.835 3.23176 19.2717 3.15558 19.5307C3.0134 20.008 3.11496 20.3889 3.47551 20.7443C3.9884 21.2623 4.6384 21.2623 5.15129 20.7443C5.64894 20.2518 5.66418 19.617 5.19191 19.0939C4.86183 18.7283 4.38957 18.6014 3.90715 18.7537ZM4.59269 19.6271C4.8466 19.876 4.66887 20.3127 4.3134 20.3127C4.21691 20.3127 4.11027 20.267 4.0341 20.1857C3.95285 20.1096 3.90715 20.0029 3.90715 19.9064C3.90715 19.81 3.95285 19.7033 4.0341 19.6271C4.11027 19.5459 4.21691 19.5002 4.3134 19.5002C4.40988 19.5002 4.51652 19.5459 4.59269 19.6271Z" fill="white"/>
<path d="M6.06445 18.8145C5.9832 18.8906 5.9375 18.9973 5.9375 19.0938C5.9375 19.1902 5.9832 19.2969 6.06445 19.373L6.18633 19.5H11.4219H16.6574L16.7793 19.373C16.9469 19.2105 16.9469 18.977 16.7793 18.8145L16.6574 18.6875H11.4219H6.18633L6.06445 18.8145Z" fill="white"/>
<path d="M6.06445 20.0332C5.9832 20.1094 5.9375 20.216 5.9375 20.3125C5.9375 20.409 5.9832 20.5156 6.06445 20.5918L6.18633 20.7188H9.79687H13.4074L13.5293 20.5918C13.6105 20.5156 13.6562 20.409 13.6562 20.3125C13.6562 20.216 13.6105 20.1094 13.5293 20.0332L13.4074 19.9063H9.79687H6.18633L6.06445 20.0332Z" fill="white"/>
</svg>
