<svg width="20" height="20" viewBox="0 0 20 20" fill="none" xmlns="http://www.w3.org/2000/svg">
<path fill-rule="evenodd" clip-rule="evenodd" d="M10.0007 4.16667C8.61994 4.16667 7.50065 5.28595 7.50065 6.66667C7.50065 8.04738 8.61994 9.16667 10.0007 9.16667C11.3814 9.16667 12.5007 8.04738 12.5007 6.66667C12.5007 5.28595 11.3814 4.16667 10.0007 4.16667ZM5.83398 6.66667C5.83398 4.36548 7.69946 2.5 10.0007 2.5C12.3018 2.5 14.1673 4.36548 14.1673 6.66667C14.1673 8.96785 12.3018 10.8333 10.0007 10.8333C7.69946 10.8333 5.83398 8.96785 5.83398 6.66667ZM6.21406 13.9387C5.33552 14.3288 5.00065 14.8215 5.00065 15.4167C5.00065 15.603 5.03378 15.7085 5.08172 15.785C5.12968 15.8615 5.2441 15.991 5.55248 16.1306C6.21159 16.4287 7.51406 16.6667 10.0007 16.6667C12.4872 16.6667 13.7897 16.4287 14.4488 16.1306C14.7572 15.991 14.8716 15.8615 14.9196 15.785C14.9675 15.7085 15.0007 15.603 15.0007 15.4167C15.0007 14.8215 14.6658 14.3288 13.7872 13.9387C12.8852 13.5381 11.5608 13.3333 10.0007 13.3333C8.44052 13.3333 7.11613 13.5381 6.21406 13.9387ZM5.53766 12.4155C6.74685 11.8785 8.33912 11.6667 10.0007 11.6667C11.6622 11.6667 13.2545 11.8785 14.4636 12.4155C15.6963 12.9628 16.6673 13.9285 16.6673 15.4167C16.6673 15.8056 16.5963 16.2482 16.3317 16.6702C16.0672 17.0922 15.6608 17.4116 15.1358 17.6491C14.1283 18.1049 12.5141 18.3333 10.0007 18.3333C7.48724 18.3333 5.87305 18.1049 4.86549 17.6491C4.34053 17.4116 3.93412 17.0922 3.66959 16.6702C3.40502 16.2482 3.33398 15.8056 3.33398 15.4167C3.33398 13.9285 4.30495 12.9628 5.53766 12.4155Z" fill="#3A3A3A"/>
</svg>
