<svg width="214" height="55" viewBox="0 0 214 55" fill="none" xmlns="http://www.w3.org/2000/svg">
<path d="M39.8137 0.14783C36.5911 0.724002 33.9641 3.20447 33.0755 6.48572C32.7923 7.53064 32.7825 9.57166 33.0462 10.5775C33.4758 12.1791 34.2473 13.556 35.3411 14.6498C38.886 18.1947 44.7747 17.9506 47.968 14.1224C48.5149 13.4584 48.5735 13.1068 48.1926 12.7357C48.0169 12.5502 47.8508 12.4916 47.5188 12.4916C47.2844 12.4916 46.7571 12.433 46.3665 12.3549C42.5579 11.6224 40.0383 7.9408 40.761 4.17127C40.9368 3.24353 41.22 2.55017 41.7571 1.6908C42.2454 0.890018 42.2942 0.577518 41.9426 0.235721C41.7473 0.0306425 41.6204 -0.00841996 41.1419 0.00134567C40.8294 0.00134567 40.2337 0.069705 39.8137 0.14783ZM39.7942 1.91541C39.0716 3.76111 38.8958 5.34314 39.218 7.0326C39.8137 10.1967 42.2161 12.8529 45.263 13.722C45.6145 13.8197 45.8977 13.9271 45.8977 13.9564C45.8977 14.0443 44.7063 14.7963 44.2864 14.9818C41.5813 16.1342 38.5735 15.597 36.5227 13.5756C35.7219 12.7845 35.2239 12.0228 34.8528 11.0267C33.886 8.35096 34.5012 5.58728 36.513 3.60486C37.3626 2.78455 38.0462 2.33533 39.0325 1.99353C39.8333 1.71033 39.8821 1.70056 39.7942 1.91541Z" fill="white"/>
<path d="M25.3519 2.44273C25.2542 2.50133 25.0296 2.87242 24.8539 3.26305L24.5218 3.97594L23.8578 4.05406C23.3206 4.10289 23.1546 4.17125 22.93 4.39586C22.5101 4.80601 22.5687 5.08922 23.2132 5.76305L23.7601 6.33922L23.6429 7.12047C23.555 7.72594 23.555 7.94078 23.6429 8.11656C23.9456 8.68297 24.3167 8.71226 25.1664 8.24351L25.7816 7.89195L26.3968 8.24351C27.2464 8.71226 27.6175 8.68297 27.9203 8.11656C28.0081 7.94078 28.0081 7.72594 27.9203 7.12047L27.8031 6.33922L28.3499 5.76305C28.9945 5.08922 29.0531 4.80601 28.6331 4.38609C28.4085 4.16148 28.2328 4.10289 27.6956 4.0443L27.0316 3.96617L26.7093 3.26305C26.5335 2.87242 26.2992 2.50133 26.1917 2.44273C25.9378 2.30601 25.596 2.30601 25.3519 2.44273ZM26.1039 5.2943C26.4066 5.49937 26.4261 5.53844 26.3089 5.70445C26.2308 5.80211 26.1722 5.97789 26.1722 6.09508C26.1722 6.27086 26.1234 6.29039 25.7816 6.26109C25.4496 6.22203 25.391 6.18297 25.391 5.99742C25.391 5.88023 25.3226 5.72398 25.2445 5.65562C25.1175 5.55797 25.1468 5.50914 25.4203 5.31383C25.5863 5.18687 25.7425 5.07945 25.7523 5.07945C25.7621 5.06969 25.9183 5.16734 26.1039 5.2943Z" fill="white"/>
<path d="M16.4062 6.24158V7.02283H17.1875H17.9688V6.24158V5.46033H17.1875H16.4062V6.24158Z" fill="white"/>
<path d="M9.72704 11.0365C9.62939 11.0951 9.40478 11.4662 9.229 11.847L8.90673 12.5502L8.19384 12.6576C7.61767 12.7552 7.42236 12.8236 7.25634 13.0287C6.89501 13.4388 6.96337 13.7025 7.58837 14.3568L8.13525 14.933L8.01806 15.7142C7.93017 16.3197 7.93017 16.5345 8.01806 16.7103C8.32079 17.2767 8.69189 17.306 9.5415 16.8373L10.1567 16.4857L10.772 16.8373C11.6216 17.306 11.9927 17.2767 12.2954 16.7103C12.3833 16.5345 12.3833 16.3197 12.2954 15.7142L12.1782 14.933L12.7251 14.3568C13.3696 13.683 13.4282 13.3998 13.0083 12.9896C12.7837 12.765 12.6177 12.6966 12.0806 12.6478L11.4165 12.5697L11.0845 11.8568C10.9087 11.4662 10.6743 11.0951 10.5669 11.0365C10.313 10.8998 9.97118 10.8998 9.72704 11.0365ZM10.479 13.888C10.7817 14.0931 10.8013 14.1322 10.6841 14.2982C10.6059 14.3959 10.5474 14.5716 10.5474 14.6888C10.5474 14.8646 10.4985 14.8841 10.1567 14.8548C9.8247 14.8158 9.76611 14.7767 9.76611 14.5912C9.76611 14.474 9.69775 14.3177 9.61962 14.2494C9.49267 14.1517 9.52196 14.1029 9.7954 13.9076C9.96142 13.7806 10.1177 13.6732 10.1274 13.6732C10.1372 13.6634 10.2934 13.7611 10.479 13.888Z" fill="white"/>
<path d="M28.125 14.0541V14.8353H28.9062H29.6875V14.0541V13.2728H28.9062H28.125V14.0541Z" fill="white"/>
<path d="M22.7319 15.0112C21.5726 15.5624 20.5444 16.1136 20.4435 16.236C20.1915 16.5524 20.2117 16.8382 20.5645 17.5833C20.7258 17.9304 20.8669 18.2774 20.8669 18.3284C20.8669 18.3897 17.0867 20.1963 12.4798 22.3499C7.8629 24.4933 3.99194 26.3408 3.89113 26.453C3.6996 26.6266 3.65927 26.9736 3.75 27.4941C3.77016 27.637 3.4375 27.831 2.11694 28.4434C0.453629 29.2191 0 29.5355 0 29.9336C0 30.2194 1.88508 34.3939 2.14718 34.6797C2.48992 35.0574 2.8629 34.9757 4.71774 34.1081C6.28024 33.3733 6.45161 33.312 6.50202 33.4957C6.58266 33.7407 7.02621 34.0979 7.26814 34.0979C7.36895 34.0979 8.63911 33.5468 10.0907 32.8731C11.5423 32.1893 12.7722 31.6789 12.8125 31.7198C12.8528 31.7606 11.8548 35.2921 10.5948 39.5586L8.28629 47.3158L4.14315 47.3464L0 47.3668V48.1833V48.9999H25H50V48.1833V47.3668H37.4093H24.8185L24.7077 47.03C24.6472 46.8564 23.5585 43.1106 22.2782 38.7216C20.0101 30.9236 19.9597 30.7195 20.0706 30.2704C20.1714 29.8621 20.1613 28.8414 20.0504 28.3923C20.0202 28.2903 20.6754 27.933 22.2278 27.2083L24.4456 26.1673L24.8085 26.9532C25.1714 27.7391 25.4032 27.9739 25.7863 27.9739C25.9778 27.9739 29.9798 26.157 30.4133 25.8815C30.9375 25.5344 30.9274 25.4936 28.3266 19.737C26.9859 16.777 25.7964 14.2661 25.6855 14.1641C25.5746 14.0722 25.3427 13.9905 25.1613 14.0007C24.9899 14.0007 23.9012 14.46 22.7319 15.0112ZM17.2077 27.2492C18.9617 28.1474 18.9516 30.6276 17.1875 31.5769C16.6331 31.8729 15.6351 31.8729 15.0605 31.5667C14.1129 31.0767 13.5988 29.9846 13.8105 28.9537C14.1331 27.3512 15.7964 26.5143 17.2077 27.2492ZM18.2863 41.0386L19.9194 47.3158L16.5927 47.3464C14.7681 47.3566 13.256 47.3464 13.2258 47.326C13.1754 47.2749 16.4113 34.741 16.5121 34.5572C16.5524 34.496 16.5927 34.5266 16.6129 34.6083C16.6331 34.6899 17.379 37.5887 18.2863 41.0386Z" fill="white"/>
<path d="M40.9769 19.6302C40.8792 19.6888 40.6546 20.0599 40.4789 20.4505L40.1468 21.1634L39.4828 21.2416C38.9456 21.2904 38.7796 21.3587 38.555 21.5834C38.1351 21.9935 38.1937 22.2767 38.8382 22.9505L39.3851 23.5267L39.2679 24.308C39.18 24.9134 39.18 25.1283 39.2679 25.3041C39.5706 25.8705 39.9417 25.8998 40.7914 25.431L41.4066 25.0795L42.0218 25.431C42.8714 25.8998 43.2425 25.8705 43.5453 25.3041C43.6331 25.1283 43.6331 24.9134 43.5453 24.308L43.4281 23.5267L43.9749 22.9505C44.5999 22.2962 44.6683 22.0326 44.3167 21.6224C44.141 21.4173 43.9456 21.349 43.3695 21.2513L42.6566 21.1439L42.3343 20.4408C42.1585 20.0502 41.9242 19.6888 41.8167 19.6302C41.5628 19.4935 41.221 19.4935 40.9769 19.6302ZM41.7289 22.4818C42.0316 22.6869 42.0511 22.7259 41.9339 22.892C41.8558 22.9896 41.7972 23.1654 41.7972 23.2826C41.7972 23.4584 41.7484 23.4779 41.4066 23.4486C41.0746 23.4095 41.016 23.3705 41.016 23.1849C41.016 23.0677 40.9476 22.9115 40.8695 22.8431C40.7425 22.7455 40.7718 22.6966 41.0453 22.5013C41.2113 22.3744 41.3675 22.267 41.3773 22.267C41.3871 22.2572 41.5433 22.3548 41.7289 22.4818Z" fill="white"/>
<path d="M32.0312 29.6791V30.4603H32.8125H33.5938V29.6791V28.8978H32.8125H32.0312V29.6791Z" fill="white"/>
<path d="M44.5312 29.6791V30.4603H45.3125H46.0938V29.6791V28.8978H45.3125H44.5312V29.6791Z" fill="white"/>
<path d="M39.8137 0.14783C36.5911 0.724002 33.9641 3.20447 33.0755 6.48572C32.7923 7.53064 32.7825 9.57166 33.0462 10.5775C33.4758 12.1791 34.2473 13.556 35.3411 14.6498C38.886 18.1947 44.7747 17.9506 47.968 14.1224C48.5149 13.4584 48.5735 13.1068 48.1926 12.7357C48.0169 12.5502 47.8508 12.4916 47.5188 12.4916C47.2844 12.4916 46.7571 12.433 46.3665 12.3549C42.5579 11.6224 40.0383 7.9408 40.761 4.17127C40.9368 3.24353 41.22 2.55017 41.7571 1.6908C42.2454 0.890018 42.2942 0.577518 41.9426 0.235721C41.7473 0.0306425 41.6204 -0.00841996 41.1419 0.00134567C40.8294 0.00134567 40.2337 0.069705 39.8137 0.14783ZM39.7942 1.91541C39.0716 3.76111 38.8958 5.34314 39.218 7.0326C39.8137 10.1967 42.2161 12.8529 45.263 13.722C45.6145 13.8197 45.8977 13.9271 45.8977 13.9564C45.8977 14.0443 44.7063 14.7963 44.2864 14.9818C41.5813 16.1342 38.5735 15.597 36.5227 13.5756C35.7219 12.7845 35.2239 12.0228 34.8528 11.0267C33.886 8.35096 34.5012 5.58728 36.513 3.60486C37.3626 2.78455 38.0462 2.33533 39.0325 1.99353C39.8333 1.71033 39.8821 1.70056 39.7942 1.91541Z" fill="white"/>
<path d="M25.3519 2.44273C25.2542 2.50133 25.0296 2.87242 24.8539 3.26305L24.5218 3.97594L23.8578 4.05406C23.3206 4.10289 23.1546 4.17125 22.93 4.39586C22.5101 4.80601 22.5687 5.08922 23.2132 5.76305L23.7601 6.33922L23.6429 7.12047C23.555 7.72594 23.555 7.94078 23.6429 8.11656C23.9456 8.68297 24.3167 8.71226 25.1664 8.24351L25.7816 7.89195L26.3968 8.24351C27.2464 8.71226 27.6175 8.68297 27.9203 8.11656C28.0081 7.94078 28.0081 7.72594 27.9203 7.12047L27.8031 6.33922L28.3499 5.76305C28.9945 5.08922 29.0531 4.80601 28.6331 4.38609C28.4085 4.16148 28.2328 4.10289 27.6956 4.0443L27.0316 3.96617L26.7093 3.26305C26.5335 2.87242 26.2992 2.50133 26.1917 2.44273C25.9378 2.30601 25.596 2.30601 25.3519 2.44273ZM26.1039 5.2943C26.4066 5.49937 26.4261 5.53844 26.3089 5.70445C26.2308 5.80211 26.1722 5.97789 26.1722 6.09508C26.1722 6.27086 26.1234 6.29039 25.7816 6.26109C25.4496 6.22203 25.391 6.18297 25.391 5.99742C25.391 5.88023 25.3226 5.72398 25.2445 5.65562C25.1175 5.55797 25.1468 5.50914 25.4203 5.31383C25.5863 5.18687 25.7425 5.07945 25.7523 5.07945C25.7621 5.06969 25.9183 5.16734 26.1039 5.2943Z" fill="white"/>
<path d="M16.4062 6.24158V7.02283H17.1875H17.9688V6.24158V5.46033H17.1875H16.4062V6.24158Z" fill="white"/>
<path d="M9.72704 11.0365C9.62939 11.0951 9.40478 11.4662 9.229 11.847L8.90673 12.5502L8.19384 12.6576C7.61767 12.7552 7.42236 12.8236 7.25634 13.0287C6.89501 13.4388 6.96337 13.7025 7.58837 14.3568L8.13525 14.933L8.01806 15.7142C7.93017 16.3197 7.93017 16.5345 8.01806 16.7103C8.32079 17.2767 8.69189 17.306 9.5415 16.8373L10.1567 16.4857L10.772 16.8373C11.6216 17.306 11.9927 17.2767 12.2954 16.7103C12.3833 16.5345 12.3833 16.3197 12.2954 15.7142L12.1782 14.933L12.7251 14.3568C13.3696 13.683 13.4282 13.3998 13.0083 12.9896C12.7837 12.765 12.6177 12.6966 12.0806 12.6478L11.4165 12.5697L11.0845 11.8568C10.9087 11.4662 10.6743 11.0951 10.5669 11.0365C10.313 10.8998 9.97118 10.8998 9.72704 11.0365ZM10.479 13.888C10.7817 14.0931 10.8013 14.1322 10.6841 14.2982C10.6059 14.3959 10.5474 14.5716 10.5474 14.6888C10.5474 14.8646 10.4985 14.8841 10.1567 14.8548C9.8247 14.8158 9.76611 14.7767 9.76611 14.5912C9.76611 14.474 9.69775 14.3177 9.61962 14.2494C9.49267 14.1517 9.52196 14.1029 9.7954 13.9076C9.96142 13.7806 10.1177 13.6732 10.1274 13.6732C10.1372 13.6634 10.2934 13.7611 10.479 13.888Z" fill="white"/>
<path d="M28.125 14.0541V14.8353H28.9062H29.6875V14.0541V13.2728H28.9062H28.125V14.0541Z" fill="white"/>
<path d="M22.7319 15.0112C21.5726 15.5624 20.5444 16.1136 20.4435 16.236C20.1915 16.5524 20.2117 16.8382 20.5645 17.5833C20.7258 17.9304 20.8669 18.2774 20.8669 18.3284C20.8669 18.3897 17.0867 20.1963 12.4798 22.3499C7.8629 24.4933 3.99194 26.3408 3.89113 26.453C3.6996 26.6266 3.65927 26.9736 3.75 27.4941C3.77016 27.637 3.4375 27.831 2.11694 28.4434C0.453629 29.2191 0 29.5355 0 29.9336C0 30.2194 1.88508 34.3939 2.14718 34.6797C2.48992 35.0574 2.8629 34.9757 4.71774 34.1081C6.28024 33.3733 6.45161 33.312 6.50202 33.4957C6.58266 33.7407 7.02621 34.0979 7.26814 34.0979C7.36895 34.0979 8.63911 33.5468 10.0907 32.8731C11.5423 32.1893 12.7722 31.6789 12.8125 31.7198C12.8528 31.7606 11.8548 35.2921 10.5948 39.5586L8.28629 47.3158L4.14315 47.3464L0 47.3668V48.1833V48.9999H25H50V48.1833V47.3668H37.4093H24.8185L24.7077 47.03C24.6472 46.8564 23.5585 43.1106 22.2782 38.7216C20.0101 30.9236 19.9597 30.7195 20.0706 30.2704C20.1714 29.8621 20.1613 28.8414 20.0504 28.3923C20.0202 28.2903 20.6754 27.933 22.2278 27.2083L24.4456 26.1673L24.8085 26.9532C25.1714 27.7391 25.4032 27.9739 25.7863 27.9739C25.9778 27.9739 29.9798 26.157 30.4133 25.8815C30.9375 25.5344 30.9274 25.4936 28.3266 19.737C26.9859 16.777 25.7964 14.2661 25.6855 14.1641C25.5746 14.0722 25.3427 13.9905 25.1613 14.0007C24.9899 14.0007 23.9012 14.46 22.7319 15.0112ZM17.2077 27.2492C18.9617 28.1474 18.9516 30.6276 17.1875 31.5769C16.6331 31.8729 15.6351 31.8729 15.0605 31.5667C14.1129 31.0767 13.5988 29.9846 13.8105 28.9537C14.1331 27.3512 15.7964 26.5143 17.2077 27.2492ZM18.2863 41.0386L19.9194 47.3158L16.5927 47.3464C14.7681 47.3566 13.256 47.3464 13.2258 47.326C13.1754 47.2749 16.4113 34.741 16.5121 34.5572C16.5524 34.496 16.5927 34.5266 16.6129 34.6083C16.6331 34.6899 17.379 37.5887 18.2863 41.0386Z" fill="white"/>
<path d="M40.9769 19.6302C40.8792 19.6888 40.6546 20.0599 40.4789 20.4505L40.1468 21.1634L39.4828 21.2416C38.9456 21.2904 38.7796 21.3587 38.555 21.5834C38.1351 21.9935 38.1937 22.2767 38.8382 22.9505L39.3851 23.5267L39.2679 24.308C39.18 24.9134 39.18 25.1283 39.2679 25.3041C39.5706 25.8705 39.9417 25.8998 40.7914 25.431L41.4066 25.0795L42.0218 25.431C42.8714 25.8998 43.2425 25.8705 43.5453 25.3041C43.6331 25.1283 43.6331 24.9134 43.5453 24.308L43.4281 23.5267L43.9749 22.9505C44.5999 22.2962 44.6683 22.0326 44.3167 21.6224C44.141 21.4173 43.9456 21.349 43.3695 21.2513L42.6566 21.1439L42.3343 20.4408C42.1585 20.0502 41.9242 19.6888 41.8167 19.6302C41.5628 19.4935 41.221 19.4935 40.9769 19.6302ZM41.7289 22.4818C42.0316 22.6869 42.0511 22.7259 41.9339 22.892C41.8558 22.9896 41.7972 23.1654 41.7972 23.2826C41.7972 23.4584 41.7484 23.4779 41.4066 23.4486C41.0746 23.4095 41.016 23.3705 41.016 23.1849C41.016 23.0677 40.9476 22.9115 40.8695 22.8431C40.7425 22.7455 40.7718 22.6966 41.0453 22.5013C41.2113 22.3744 41.3675 22.267 41.3773 22.267C41.3871 22.2572 41.5433 22.3548 41.7289 22.4818Z" fill="white"/>
<path d="M32.0312 29.6791V30.4603H32.8125H33.5938V29.6791V28.8978H32.8125H32.0312V29.6791Z" fill="white"/>
<path d="M44.5312 29.6791V30.4603H45.3125H46.0938V29.6791V28.8978H45.3125H44.5312V29.6791Z" fill="white"/>
<path d="M68.688 18.176V39.872H70.608V18.176H68.688ZM65.016 26.864V28.52H69.192V26.864H65.016ZM63.768 18.656V38.768H65.64V18.656H63.768ZM52.968 32.864V34.52H54.384C57.648 34.52 59.832 34.424 62.424 33.872L62.232 32.216C59.712 32.744 57.552 32.864 54.384 32.864H52.968ZM52.968 20.816V33.608H54.936V22.448H61.032V20.816H52.968ZM85.7741 24.152V25.784H91.2461V24.152H85.7741ZM90.1181 18.2V34.088H92.1101V18.2H90.1181ZM78.2621 37.76V39.392H92.7101V37.76H78.2621ZM78.2621 32.696V38.6H80.2541V32.696H78.2621ZM79.7981 20.888V22.64C79.7981 25.712 77.5661 28.592 74.3261 29.744L75.3581 31.328C78.9821 29.984 81.4301 26.576 81.4301 22.64V20.888H79.7981ZM80.1821 20.888V22.616C80.1821 26.288 82.5101 29.552 86.0381 30.824L87.0461 29.264C83.9021 28.16 81.7901 25.424 81.7901 22.616V20.888H80.1821ZM74.9501 19.952V21.56H86.5421V19.952H74.9501ZM102.068 20.048V23.936C102.068 28.04 99.4523 32.192 96.2363 33.728L97.4603 35.36C101.012 33.56 103.7 28.928 103.7 23.936V20.048H102.068ZM102.404 20.048V23.936C102.404 28.76 105.116 33.224 108.644 34.952L109.844 33.368C106.628 31.88 104.036 27.896 104.036 23.936V20.048H102.404ZM112.1 18.152V39.896H114.092V18.152H112.1ZM119.562 20.048V30.152H129.666V20.048H119.562ZM127.746 21.656V28.544H121.482V21.656H127.746ZM134.202 18.2V33.776H136.218V18.2H134.202ZM122.274 37.52V39.176H136.866V37.52H122.274ZM122.274 32.288V38.192H124.242V32.288H122.274ZM145.913 22.256V23.336C145.913 26.384 143.777 29.072 140.561 30.176L141.545 31.736C145.169 30.464 147.545 27.248 147.545 23.336V22.256H145.913ZM146.249 22.256V23.336C146.249 27.08 148.721 30.152 152.345 31.352L153.329 29.768C150.113 28.76 147.905 26.216 147.905 23.336V22.256H146.249ZM141.113 21.08V22.688H152.681V21.08H141.113ZM145.913 18.32V21.68H147.905V18.32H145.913ZM151.961 24.848V26.504H157.433V24.848H151.961ZM156.353 18.2V34.376H158.345V18.2H156.353ZM144.497 37.76V39.392H158.945V37.76H144.497ZM144.497 32.936V38.648H146.489V32.936H144.497ZM162.567 29.264V30.896H182.223V29.264H162.567ZM171.543 30.272V35.264H173.535V30.272H171.543ZM165.087 19.184V26.816H179.679V19.184H165.087ZM177.711 20.792V25.208H167.031V20.792H177.711ZM165.063 37.76V39.392H180.039V37.76H165.063ZM165.063 33.176V38.336H167.031V33.176H165.063ZM201.157 18.176V39.872H203.077V18.176H201.157ZM197.485 26.864V28.52H201.661V26.864H197.485ZM196.237 18.656V38.768H198.109V18.656H196.237ZM185.437 32.864V34.52H186.853C190.117 34.52 192.301 34.424 194.893 33.872L194.701 32.216C192.181 32.744 190.021 32.864 186.853 32.864H185.437ZM185.437 20.816V33.608H187.405V22.448H193.501V20.816H185.437Z" fill="white"/>
</svg>
