<svg width="26" height="24" viewBox="0 0 26 24" fill="none" xmlns="http://www.w3.org/2000/svg">
<path d="M24.4816 0.548829C23.8418 0.731641 22.8719 1.30039 21.6023 2.25508C21.2367 2.53438 20.9219 2.75781 20.9066 2.75781C20.8914 2.75781 20.8406 2.63594 20.7949 2.48867C20.5512 1.74219 20.0586 1.08711 19.5609 0.84336L19.2715 0.701173H10.4102H1.54883L1.25937 0.81797C0.883594 0.970313 0.446875 1.36641 0.279297 1.70664C0.121875 2.03164 0 2.58008 0 2.98633C0 3.42813 0.0914062 3.93086 0.198047 4.07813L0.289453 4.20508L2.06172 4.23047L3.83398 4.25586L3.86953 4.50977C4.06758 5.85039 4.16406 8.84648 4.16406 13.8129C4.16406 17.1949 4.19453 18.1242 4.3418 19.4902C4.60078 21.8059 5.15937 23.0805 6.06836 23.4207L6.35273 23.5273L15.1227 23.5172L23.8926 23.502L24.1668 23.3902C24.7355 23.1566 25.0859 22.7961 25.2992 22.2223C25.3957 21.9734 25.4109 21.816 25.4109 21.1914C25.416 20.4602 25.3602 20.125 25.223 20.0387C25.1875 20.0133 24.3953 19.9879 23.4609 19.9727L21.7598 19.9473L21.6988 19.4395C21.5617 18.2715 21.5211 16.7887 21.5008 12.518L21.4855 8.08984L22.0137 7.49063C22.3082 7.16563 22.5672 6.83555 22.5926 6.76445C22.684 6.49531 22.3895 6.20586 22.1305 6.30742C22.0645 6.33281 21.7598 6.63242 21.4551 6.97266L20.9066 7.59219L20.7086 7.5668C20.0891 7.48555 19.0125 6.40899 18.8703 5.72344C18.8348 5.57617 18.8652 5.54063 19.5863 4.91094C21.6125 3.13359 23.202 1.95547 24.2227 1.46797C24.5578 1.31055 24.7152 1.26484 24.9336 1.25977C25.1926 1.25977 25.2129 1.26992 25.2281 1.38164C25.2992 1.87422 24.6137 3.08281 23.2984 4.77891C22.8109 5.40859 22.7602 5.55078 22.9734 5.74883C23.0598 5.83008 23.141 5.86055 23.2629 5.84531C23.4102 5.83008 23.4863 5.76406 23.8012 5.37305C24.7406 4.20508 25.5227 2.99649 25.807 2.27539C25.934 1.95039 25.9695 1.79297 25.9695 1.48828C25.9746 1.04649 25.8934 0.858595 25.6191 0.645313C25.3957 0.472657 24.898 0.432032 24.4816 0.548829ZM2.63555 1.53906C2.99609 1.72188 3.26523 2.1332 3.49883 2.84922C3.58516 3.11328 3.65625 3.35703 3.65625 3.39766C3.65625 3.45859 3.42266 3.46875 2.23437 3.46875H0.8125L0.782031 3.33672C0.761719 3.26563 0.761719 3.02695 0.776953 2.81367C0.807422 2.36172 0.949609 1.97578 1.16797 1.76758C1.48789 1.46289 2.25469 1.34102 2.63555 1.53906ZM19.307 1.58477C19.6727 1.81836 19.9316 2.24492 20.15 2.98125L20.2516 3.32149L19.2664 4.17969C18.6113 4.75352 18.1949 5.08359 18.0172 5.16484C17.4992 5.39336 16.9762 5.87578 16.7477 6.33281C16.6918 6.44961 16.5293 6.66289 16.3871 6.80508L16.1281 7.07422H11.3445C8.71406 7.07422 6.52031 7.08945 6.47461 7.10469C6.35273 7.15547 6.24102 7.40938 6.27656 7.55664C6.34766 7.85117 6.13945 7.83594 10.918 7.83594H15.3105L14.6504 8.49609L13.9902 9.15625H10.268C7.73906 9.15625 6.51016 9.17148 6.44414 9.21211C6.20039 9.33906 6.2207 9.74531 6.47969 9.86211C6.57109 9.90273 7.56133 9.91797 9.90742 9.91797C11.8625 9.91797 13.198 9.93828 13.1828 9.96367C13.1676 9.98906 13.0203 10.0855 12.8629 10.1719C12.5379 10.3547 12.0352 10.8117 11.8777 11.0707L11.7711 11.2383H9.11523H6.4543L6.35273 11.3703C6.21562 11.548 6.2207 11.6598 6.36797 11.8324L6.48984 11.9746L8.89687 12L11.2988 12.0254L10.9434 12.2945C10.5016 12.6246 9.97852 12.8887 9.54687 12.9953C9.36406 13.041 9.17617 13.1121 9.13047 13.1578C9.07461 13.2137 9.00352 13.4523 8.9375 13.7824C8.6582 15.25 8.04883 16.5906 7.24141 17.525C6.88594 17.9414 6.89102 17.9566 7.70859 18.7691C8.16055 19.216 8.45 19.4648 8.52109 19.4648C8.57695 19.4648 8.72422 19.3836 8.84609 19.2871C9.48594 18.7691 9.77539 18.5762 10.2832 18.3223C11.1008 17.916 11.9641 17.6367 12.868 17.4793C13.0609 17.4488 13.2539 17.3828 13.2996 17.3371C13.3453 17.2914 13.4164 17.1137 13.452 16.9512C13.4875 16.7836 13.6043 16.4637 13.7109 16.2402C13.9242 15.7984 14.5234 15.0113 14.7266 14.9098C14.7977 14.8742 14.9906 14.7828 15.1582 14.7066C15.5289 14.5289 16.0672 14.0109 16.2703 13.625C16.4734 13.2492 19.759 9.89766 20.1043 9.71992C20.2312 9.65391 20.4242 9.53203 20.5309 9.45078L20.7187 9.29844V12.0355C20.7187 15.7934 20.7949 18.1852 20.9523 19.6527L20.9879 19.9727H14.6047C8.27734 19.9727 8.22656 19.9727 8.125 20.0742C8.02852 20.1707 8.02344 20.2215 8.05391 20.8766C8.09453 21.6891 8.02344 22.0344 7.75937 22.334C7.54102 22.5828 7.39883 22.6488 6.89609 22.7199C6.49492 22.7809 6.44922 22.7758 6.26641 22.6793C5.85 22.466 5.45898 21.6332 5.25586 20.5363C4.9918 19.0891 4.93086 17.6723 4.90547 12.0762C4.88008 7.61758 4.84961 6.45977 4.71758 5.19531C4.64141 4.42344 4.48398 3.51445 4.33672 2.96094C4.20469 2.46836 3.86953 1.69141 3.72227 1.52891C3.64609 1.44258 3.94062 1.4375 11.3547 1.4375H19.0734L19.307 1.58477ZM18.7637 7.08945C19.1242 7.52617 19.6523 7.94766 20.0891 8.1457C20.282 8.23711 20.4496 8.31836 20.4598 8.32344C20.4699 8.33359 20.4191 8.43008 20.343 8.5418C20.0891 8.90742 19.566 9.18672 19.2512 9.13086C18.5199 8.99375 17.4281 7.88672 17.3316 7.18086C17.291 6.89141 17.4789 6.51055 17.8141 6.20586L18.0984 5.94688L18.2965 6.35313C18.4031 6.57656 18.6164 6.90664 18.7637 7.08945ZM17.423 8.82109C17.7836 9.20703 18.4234 9.68438 18.6723 9.74531C18.7332 9.76563 18.7891 9.80117 18.7891 9.82656C18.7891 9.85195 18.1543 10.5172 17.3824 11.2941C15.9758 12.716 15.9707 12.716 15.793 12.6855C15.0668 12.5484 13.8937 11.3703 13.777 10.6645C13.7516 10.4969 13.782 10.4613 15.1887 9.06992L16.6258 7.64297L16.8391 8.02891C16.9508 8.24219 17.2148 8.59258 17.423 8.82109ZM13.1676 11.2586C13.3555 11.6699 13.6246 12.0355 14.0309 12.4469C14.4016 12.8277 15.077 13.2898 15.341 13.3457C15.4223 13.366 15.4883 13.3965 15.4883 13.4219C15.4883 13.5082 15.0059 13.9348 14.7824 14.0414C14.4625 14.1988 14.1629 14.1938 13.8125 14.0211C13.2996 13.7672 12.6395 13.1172 12.4109 12.6348C12.1875 12.1625 12.2891 11.7055 12.7258 11.2383C12.8578 11.0961 12.9797 10.9844 13.0051 10.9844C13.0254 10.9844 13.1016 11.1063 13.1676 11.2586ZM11.7812 13.0613C12.152 13.757 13.0711 14.6051 13.6652 14.8031C13.7008 14.8133 13.6246 14.9555 13.4824 15.1484C13.2133 15.5191 12.8172 16.291 12.7664 16.55C12.7461 16.6719 12.7004 16.7328 12.6242 16.748C10.8164 17.1441 9.84648 17.5504 8.82578 18.3324C8.66328 18.4543 8.53125 18.5355 8.53125 18.5152C8.53125 18.4949 9.07461 17.9313 9.73984 17.2711C10.9332 16.0828 10.9434 16.0727 11.1617 16.0676C11.4512 16.0676 11.7152 15.9 11.8371 15.6359C11.959 15.3668 11.959 15.2297 11.832 14.9707C11.4867 14.2547 10.3848 14.5086 10.3848 15.3059V15.5547L9.18125 16.7582C8.51602 17.4184 7.9625 17.9516 7.94727 17.9363C7.93203 17.9211 8.03359 17.7586 8.1707 17.5758C8.84102 16.6922 9.32852 15.575 9.61797 14.2395L9.72461 13.7621L9.97852 13.6758C10.3441 13.5488 10.8926 13.2645 11.2734 12.9953C11.4562 12.8684 11.6086 12.7617 11.6137 12.7617C11.6187 12.7617 11.6949 12.8938 11.7812 13.0613ZM24.6797 21.1813C24.6797 21.943 24.4766 22.3746 23.9992 22.6285L23.791 22.7402L16.1129 22.7555L8.43477 22.7656L8.56172 22.5219C8.75469 22.1461 8.83594 21.7703 8.83594 21.227V20.7344H16.7578H24.6797V21.1813Z" fill="white"/>
<path d="M6.49419 4.84492C6.25044 4.93633 6.19459 5.24609 6.38755 5.45937C6.45865 5.5457 6.66177 5.55078 9.24146 5.55078C11.8669 5.55078 12.0294 5.5457 12.1411 5.45937C12.2934 5.33242 12.2934 5.07852 12.1411 4.92617L12.0294 4.81445L9.32779 4.8043C7.68248 4.79922 6.57544 4.81445 6.49419 4.84492Z" fill="white"/>
<path d="M16.0729 17.6418C15.8241 17.784 15.7784 17.9973 15.951 18.2156L16.0526 18.3477H17.6268C19.1299 18.3477 19.201 18.3426 19.2975 18.2461C19.4346 18.109 19.4295 17.8348 19.2924 17.7078C19.1909 17.6164 19.0791 17.6113 17.6776 17.6012C16.6416 17.591 16.144 17.6063 16.0729 17.6418Z" fill="white"/>
</svg>
