<?xml version="1.0" standalone="no"?>
<!DOCTYPE svg PUBLIC "-//W3C//DTD SVG 20010904//EN"
 "http://www.w3.org/TR/2001/REC-SVG-20010904/DTD/svg10.dtd">
<svg version="1.0" xmlns="http://www.w3.org/2000/svg"
 width="512.000000pt" height="512.000000pt" viewBox="0 0 512.000000 512.000000"
 preserveAspectRatio="xMidYMid meet">

<g transform="translate(0.000000,512.000000) scale(0.100000,-0.100000)"
fill="#000000" stroke="none">
<path d="M3540 4854 c-21 -9 -150 -130 -325 -305 l-290 -289 -66 0 c-87 0
-124 -21 -243 -136 -104 -101 -131 -154 -124 -239 l3 -45 -115 -48 c-63 -27
-360 -149 -659 -273 -360 -148 -548 -231 -557 -244 -17 -26 -924 -2924 -924
-2952 0 -35 20 -70 46 -82 28 -13 -119 -57 1706 514 694 218 1272 402 1283
409 12 8 115 243 290 667 l270 654 71 6 c92 7 136 33 242 144 98 101 121 146
122 230 l0 60 276 275 c151 151 286 294 300 316 31 53 41 129 24 191 -12 45
-51 86 -544 582 -583 585 -578 581 -691 581 -33 -1 -76 -8 -95 -16z m657 -657
c486 -486 523 -525 523 -556 0 -32 -23 -57 -275 -310 l-275 -276 -557 558
-558 557 275 275 c254 253 278 275 310 275 32 0 69 -35 557 -523z m-708 -684
c330 -329 604 -610 610 -625 19 -51 3 -82 -84 -167 -64 -63 -89 -81 -111 -81
-25 0 -116 87 -641 613 -573 573 -613 615 -613 647 0 30 11 46 87 122 74 74
93 88 119 88 29 0 90 -58 633 -597z m-335 -362 l558 -558 -266 -643 c-146
-354 -269 -647 -273 -651 -5 -4 -575 -184 -1268 -399 -693 -216 -1266 -395
-1275 -397 -8 -3 250 260 574 584 l588 590 56 -28 c259 -130 580 34 633 323
34 184 -71 383 -246 469 -68 33 -73 34 -190 34 -115 0 -123 -1 -185 -32 -82
-40 -138 -88 -183 -155 -88 -134 -98 -296 -27 -439 l27 -57 -590 -588 c-324
-324 -587 -582 -584 -573 3 9 184 583 401 1275 218 692 400 1262 405 1267 7 7
1269 536 1281 537 3 0 256 -251 564 -559z m-1008 -850 c92 -42 154 -135 162
-244 6 -85 -15 -145 -73 -202 -146 -147 -405 -91 -460 99 -40 139 23 283 150
342 64 30 161 32 221 5z"/>
</g>
</svg>
