<svg width="210" height="48" viewBox="0 0 210 48" fill="none" xmlns="http://www.w3.org/2000/svg">
<path d="M72.688 15.176V36.872H74.608V15.176H72.688ZM69.016 23.864V25.52H73.192V23.864H69.016ZM67.768 15.656V35.768H69.64V15.656H67.768ZM56.968 29.864V31.52H58.384C61.648 31.52 63.832 31.424 66.424 30.872L66.232 29.216C63.712 29.744 61.552 29.864 58.384 29.864H56.968ZM56.968 17.816V30.608H58.936V19.448H65.032V17.816H56.968ZM89.7741 21.152V22.784H95.2461V21.152H89.7741ZM94.1181 15.2V31.088H96.1101V15.2H94.1181ZM82.2621 34.76V36.392H96.7101V34.76H82.2621ZM82.2621 29.696V35.6H84.2541V29.696H82.2621ZM83.7981 17.888V19.64C83.7981 22.712 81.5661 25.592 78.3261 26.744L79.3581 28.328C82.9821 26.984 85.4301 23.576 85.4301 19.64V17.888H83.7981ZM84.1821 17.888V19.616C84.1821 23.288 86.5101 26.552 90.0381 27.824L91.0461 26.264C87.9021 25.16 85.7901 22.424 85.7901 19.616V17.888H84.1821ZM78.9501 16.952V18.56H90.5421V16.952H78.9501ZM106.068 17.048V20.936C106.068 25.04 103.452 29.192 100.236 30.728L101.46 32.36C105.012 30.56 107.7 25.928 107.7 20.936V17.048H106.068ZM106.404 17.048V20.936C106.404 25.76 109.116 30.224 112.644 31.952L113.844 30.368C110.628 28.88 108.036 24.896 108.036 20.936V17.048H106.404ZM116.1 15.152V36.896H118.092V15.152H116.1ZM123.562 17.048V27.152H133.666V17.048H123.562ZM131.746 18.656V25.544H125.482V18.656H131.746ZM138.202 15.2V30.776H140.218V15.2H138.202ZM126.274 34.52V36.176H140.866V34.52H126.274ZM126.274 29.288V35.192H128.242V29.288H126.274ZM149.913 19.256V20.336C149.913 23.384 147.777 26.072 144.561 27.176L145.545 28.736C149.169 27.464 151.545 24.248 151.545 20.336V19.256H149.913ZM150.249 19.256V20.336C150.249 24.08 152.721 27.152 156.345 28.352L157.329 26.768C154.113 25.76 151.905 23.216 151.905 20.336V19.256H150.249ZM145.113 18.08V19.688H156.681V18.08H145.113ZM149.913 15.32V18.68H151.905V15.32H149.913ZM155.961 21.848V23.504H161.433V21.848H155.961ZM160.353 15.2V31.376H162.345V15.2H160.353ZM148.497 34.76V36.392H162.945V34.76H148.497ZM148.497 29.936V35.648H150.489V29.936H148.497ZM166.567 26.264V27.896H186.223V26.264H166.567ZM175.543 27.272V32.264H177.535V27.272H175.543ZM169.087 16.184V23.816H183.679V16.184H169.087ZM181.711 17.792V22.208H171.031V17.792H181.711ZM169.063 34.76V36.392H184.039V34.76H169.063ZM169.063 30.176V35.336H171.031V30.176H169.063ZM205.157 15.176V36.872H207.077V15.176H205.157ZM201.485 23.864V25.52H205.661V23.864H201.485ZM200.237 15.656V35.768H202.109V15.656H200.237ZM189.437 29.864V31.52H190.853C194.117 31.52 196.301 31.424 198.893 30.872L198.701 29.216C196.181 29.744 194.021 29.864 190.853 29.864H189.437ZM189.437 17.816V30.608H191.405V19.448H197.501V17.816H189.437Z" fill="black"/>
<path d="M39.8147 0.144375C36.5921 0.70681 33.9651 3.12813 33.0764 6.33115C32.7932 7.35115 32.7835 9.3435 33.0471 10.3254C33.4768 11.8888 34.2483 13.2329 35.3421 14.3005C38.887 17.7609 44.7757 17.5226 47.969 13.7858C48.5159 13.1375 48.5745 12.7944 48.1936 12.4321C48.0178 12.251 47.8518 12.1938 47.5198 12.1938C47.2854 12.1938 46.7581 12.1366 46.3674 12.0603C42.5589 11.3454 40.0393 7.75153 40.762 4.07188C40.9378 3.16627 41.221 2.48944 41.7581 1.65055C42.2464 0.868867 42.2952 0.563818 41.9436 0.230171C41.7483 0.0299816 41.6214 -0.00814819 41.1428 0.00138474C40.8303 0.00138474 40.2346 0.0681133 39.8147 0.144375ZM39.7952 1.86981C39.0725 3.6715 38.8967 5.21581 39.219 6.86498C39.8147 9.9536 42.2171 12.5465 45.2639 13.3949C45.6155 13.4903 45.8987 13.5951 45.8987 13.6237C45.8987 13.7095 44.7073 14.4435 44.2874 14.6247C41.5823 15.7495 38.5745 15.2252 36.5237 13.2519C35.7229 12.4798 35.2249 11.7362 34.8538 10.7639C33.887 8.15191 34.5022 5.45413 36.5139 3.51898C37.3635 2.71822 38.0471 2.27972 39.0335 1.94607C39.8342 1.66962 39.8831 1.66009 39.7952 1.86981Z" fill="black"/>
<path d="M25.3519 2.38462C25.2542 2.44181 25.0296 2.80406 24.8539 3.18537L24.5218 3.88126L23.8578 3.95752C23.3206 4.00519 23.1546 4.07192 22.93 4.29117C22.5101 4.69155 22.5687 4.968 23.2132 5.62576L23.7601 6.18819L23.6429 6.95082C23.555 7.54185 23.555 7.75157 23.6429 7.92316C23.9456 8.47606 24.3167 8.50466 25.1664 8.04709L25.7816 7.70391L26.3968 8.04709C27.2464 8.50466 27.6175 8.47606 27.9203 7.92316C28.0081 7.75157 28.0081 7.54185 27.9203 6.95082L27.8031 6.18819L28.3499 5.62576C28.9945 4.968 29.0531 4.69155 28.6331 4.28164C28.4085 4.06239 28.2328 4.00519 27.6956 3.94799L27.0316 3.87173L26.7093 3.18537C26.5335 2.80406 26.2992 2.44181 26.1917 2.38462C25.9378 2.25116 25.596 2.25116 25.3519 2.38462ZM26.1039 5.16819C26.4066 5.36838 26.4261 5.40651 26.3089 5.56856C26.2308 5.66389 26.1722 5.83548 26.1722 5.94988C26.1722 6.12147 26.1234 6.14053 25.7816 6.11193C25.4496 6.0738 25.391 6.03567 25.391 5.85455C25.391 5.74015 25.3226 5.58763 25.2445 5.5209C25.1175 5.42557 25.1468 5.37791 25.4203 5.18725C25.5863 5.06333 25.7425 4.95847 25.7523 4.95847C25.7621 4.94893 25.9183 5.04426 26.1039 5.16819Z" fill="black"/>
<path d="M16.4062 6.09285V6.85547H17.1875H17.9688V6.09285V5.33022H17.1875H16.4062V6.09285Z" fill="black"/>
<path d="M9.72704 10.7733C9.62939 10.8305 9.40478 11.1927 9.229 11.5645L8.90673 12.2509L8.19384 12.3557C7.61767 12.4511 7.42236 12.5178 7.25634 12.718C6.89501 13.1184 6.96337 13.3757 7.58837 14.0144L8.13525 14.5769L8.01806 15.3395C7.93017 15.9305 7.93017 16.1402 8.01806 16.3118C8.32079 16.8647 8.69189 16.8933 9.5415 16.4358L10.1567 16.0926L10.772 16.4358C11.6216 16.8933 11.9927 16.8647 12.2954 16.3118C12.3833 16.1402 12.3833 15.9305 12.2954 15.3395L12.1782 14.5769L12.7251 14.0144C13.3696 13.3567 13.4282 13.0802 13.0083 12.6798C12.7837 12.4606 12.6177 12.3939 12.0806 12.3462L11.4165 12.2699L11.0845 11.574C10.9087 11.1927 10.6743 10.8305 10.5669 10.7733C10.313 10.6398 9.97118 10.6398 9.72704 10.7733ZM10.479 13.5569C10.7817 13.757 10.8013 13.7952 10.6841 13.9572C10.6059 14.0526 10.5474 14.2242 10.5474 14.3385C10.5474 14.5101 10.4985 14.5292 10.1567 14.5006C9.8247 14.4625 9.76611 14.4243 9.76611 14.2432C9.76611 14.1288 9.69775 13.9763 9.61962 13.9096C9.49267 13.8142 9.52197 13.7666 9.7954 13.5759C9.96142 13.452 10.1177 13.3471 10.1274 13.3471C10.1372 13.3376 10.2934 13.4329 10.479 13.5569Z" fill="black"/>
<path d="M28.125 13.7188V14.4814H28.9062H29.6875V13.7188V12.9562H28.9062H28.125V13.7188Z" fill="black"/>
<path d="M22.7319 14.6533C21.5726 15.1913 20.5444 15.7294 20.4435 15.8489C20.1915 16.1578 20.2117 16.4368 20.5645 17.1641C20.7258 17.5028 20.8669 17.8416 20.8669 17.8914C20.8669 17.9512 17.0867 19.7147 12.4798 21.817C7.8629 23.9093 3.99194 25.7127 3.89113 25.8223C3.6996 25.9917 3.65927 26.3305 3.75 26.8386C3.77016 26.9781 3.4375 27.1674 2.11694 27.7652C0.453629 28.5224 0 28.8313 0 29.2198C0 29.4988 1.88508 33.5739 2.14718 33.8528C2.48992 34.2215 2.8629 34.1418 4.71774 33.2949C6.28024 32.5775 6.45161 32.5177 6.50202 32.6971C6.58266 32.9362 7.02621 33.2849 7.26815 33.2849C7.36895 33.2849 8.63911 32.7469 10.0907 32.0893C11.5423 31.4218 12.7722 30.9236 12.8125 30.9634C12.8528 31.0033 11.8548 34.4506 10.5948 38.6154L8.28629 46.1876L4.14315 46.2175L0 46.2374V47.0345V47.8315H25H50V47.0345V46.2374H37.4093H24.8185L24.7077 45.9086C24.6472 45.7392 23.5585 42.0826 22.2782 37.7984C20.0101 30.1863 19.9597 29.987 20.0706 29.5486C20.1714 29.1501 20.1613 28.1538 20.0504 27.7154C20.0202 27.6157 20.6754 27.267 22.2278 26.5596L24.4456 25.5433L24.8085 26.3105C25.1714 27.0777 25.4032 27.3069 25.7863 27.3069C25.9778 27.3069 29.9798 25.5334 30.4133 25.2644C30.9375 24.9256 30.9274 24.8858 28.3266 19.2664C26.9859 16.377 25.7964 13.926 25.6855 13.8263C25.5746 13.7367 25.3427 13.657 25.1613 13.6669C24.9899 13.6669 23.9012 14.1153 22.7319 14.6533ZM17.2077 26.5995C18.9617 27.4762 18.9516 29.8974 17.1875 30.824C16.6331 31.1129 15.6351 31.1129 15.0605 30.814C14.1129 30.3358 13.5988 29.2697 13.8105 28.2634C14.1331 26.6991 15.7964 25.8821 17.2077 26.5995ZM18.2863 40.0601L19.9194 46.1876L16.5927 46.2175C14.7681 46.2274 13.256 46.2175 13.2258 46.1975C13.1754 46.1477 16.4113 33.9126 16.5121 33.7333C16.5524 33.6735 16.5927 33.7034 16.6129 33.7831C16.6331 33.8628 17.379 36.6924 18.2863 40.0601Z" fill="black"/>
<path d="M40.9769 19.162C40.8792 19.2192 40.6546 19.5814 40.4789 19.9627L40.1468 20.6586L39.4828 20.7349C38.9456 20.7825 38.7796 20.8493 38.555 21.0685C38.1351 21.4689 38.1937 21.7453 38.8382 22.4031L39.3851 22.9655L39.2679 23.7282C39.18 24.3192 39.18 24.5289 39.2679 24.7005C39.5706 25.2534 39.9417 25.282 40.7914 24.8244L41.4066 24.4812L42.0218 24.8244C42.8714 25.282 43.2425 25.2534 43.5453 24.7005C43.6331 24.5289 43.6331 24.3192 43.5453 23.7282L43.4281 22.9655L43.9749 22.4031C44.5999 21.7644 44.6683 21.507 44.3167 21.1066C44.141 20.9065 43.9456 20.8397 43.3695 20.7444L42.6566 20.6395L42.3343 19.9532C42.1585 19.5719 41.9242 19.2192 41.8167 19.162C41.5628 19.0285 41.221 19.0285 40.9769 19.162ZM41.7289 21.9455C42.0316 22.1457 42.0511 22.1839 41.9339 22.3459C41.8558 22.4412 41.7972 22.6128 41.7972 22.7272C41.7972 22.8988 41.7484 22.9179 41.4066 22.8893C41.0746 22.8511 41.016 22.813 41.016 22.6319C41.016 22.5175 40.9476 22.365 40.8695 22.2982C40.7425 22.2029 40.7718 22.1553 41.0453 21.9646C41.2113 21.8407 41.3675 21.7358 41.3773 21.7358C41.3871 21.7263 41.5433 21.8216 41.7289 21.9455Z" fill="black"/>
<path d="M32.0312 28.9713V29.7339H32.8125H33.5938V28.9713V28.2086H32.8125H32.0312V28.9713Z" fill="black"/>
<path d="M44.5312 28.9713V29.7339H45.3125H46.0938V28.9713V28.2086H45.3125H44.5312V28.9713Z" fill="black"/>
</svg>
