<svg width="23" height="26" viewBox="0 0 23 26" fill="none" xmlns="http://www.w3.org/2000/svg">
<path d="M5.33242 1.10703L5.04297 1.40156V3.43281V5.46406L5.3375 5.75352L5.63203 6.04297H6.41406H7.19609L7.49062 5.75352L7.78516 5.46406V3.42773V1.39141L7.49062 1.10195L7.19609 0.8125H6.40898H5.62187L5.33242 1.10703ZM6.98281 1.60977C7.06914 1.68594 7.07422 1.80781 7.07422 3.41758C7.07422 4.95625 7.06406 5.1543 6.98789 5.24062C6.92187 5.3168 6.82539 5.33203 6.42422 5.33203C5.69805 5.33203 5.75391 5.49961 5.75391 3.40234C5.75391 2.10234 5.76914 1.63008 5.81484 1.58437C5.85547 1.54375 6.05352 1.52344 6.38359 1.52344C6.77969 1.52344 6.90664 1.53867 6.98281 1.60977Z" fill="white"/>
<path d="M16.4027 1.10703L16.1133 1.40156V3.43281V5.46406L16.4078 5.75352L16.7023 6.04297H17.4844H18.2664L18.5609 5.75352L18.8555 5.46406V3.42773V1.39141L18.5609 1.10195L18.2664 0.8125H17.4793H16.6922L16.4027 1.10703ZM18.0531 1.60977C18.1395 1.68594 18.1445 1.80781 18.1445 3.41758C18.1445 4.95625 18.1344 5.1543 18.0582 5.24062C17.9922 5.3168 17.8957 5.33203 17.4945 5.33203C16.7684 5.33203 16.8242 5.49961 16.8242 3.40234C16.8242 2.10234 16.8395 1.63008 16.8852 1.58437C16.9258 1.54375 17.1238 1.52344 17.4539 1.52344C17.85 1.52344 17.977 1.53867 18.0531 1.60977Z" fill="white"/>
<path d="M0.903857 3.10781C0.888623 3.14336 0.883545 4.32656 0.888623 5.73828L0.903857 8.30273H11.9488H22.9937V5.6875V3.07227L21.2316 3.05703L19.4644 3.04688V3.40234V3.75781L20.8761 3.76797L22.2828 3.7832V5.6875V7.5918H11.9488H1.61479V5.6875V3.7832L3.02651 3.76797L4.43315 3.75781V3.40234V3.04688H2.6812C1.32534 3.04688 0.919092 3.06211 0.903857 3.10781Z" fill="white"/>
<path d="M8.39453 3.40234V3.75781H11.9492H15.5039V3.40234V3.04688H11.9492H8.39453V3.40234Z" fill="white"/>
<path d="M10.9844 5.6875V6.04297H11.3398H11.6953V5.6875V5.33203H11.3398H10.9844V5.6875Z" fill="white"/>
<path d="M12.2031 5.6875V6.04297H12.5586H12.9141V5.6875V5.33203H12.5586H12.2031V5.6875Z" fill="white"/>
<path d="M0.914453 8.92227C0.894141 8.9375 0.878906 12.609 0.878906 17.0727V25.1875L11.9391 25.1773L22.9941 25.1621V17.0371V8.91211L22.6539 8.89688L22.3086 8.88164L22.2984 16.6664L22.2832 24.4512H11.9492H1.61523L1.6 16.6664L1.58984 8.88672H1.26992C1.09219 8.88672 0.929687 8.90195 0.914453 8.92227Z" fill="white"/>
<path d="M13.1832 13.2133L10.2227 16.1738L8.97852 14.9297L7.73437 13.6855L6.29727 15.1227L4.86523 16.5547L7.54648 19.2309L10.2227 21.9121L14.6254 17.5094L19.0332 13.1016L17.6113 11.6797C16.8293 10.8977 16.1793 10.2578 16.1641 10.2578C16.1488 10.2578 14.8082 11.5883 13.1832 13.2133ZM17.1035 12.1875L18.0176 13.1016L14.1176 17.0016L10.2227 20.8965L8.0543 18.723L5.88086 16.5547L6.81016 15.6305L7.73437 14.7012L8.97852 15.9453L10.2227 17.1895L13.1832 14.2289C14.8082 12.6039 16.1488 11.2734 16.1641 11.2734C16.1793 11.2734 16.6008 11.6848 17.1035 12.1875Z" fill="white"/>
</svg>
